<?xml version="1.0" encoding="utf-8"?>
<!-- Generator: Adobe Illustrator 23.0.0, SVG Export Plug-In . SVG Version: 6.00 Build 0)  -->
<svg version="1.1" id="Layer_1" xmlns="http://www.w3.org/2000/svg" xmlns:xlink="http://www.w3.org/1999/xlink" x="0px" y="0px"
	 viewBox="0 0 107 107" style="enable-background:new 0 0 107 107;" xml:space="preserve">
<style type="text/css">
	.st0{fill:#0E6EB7;}
</style>
<g>
	<g>
		<path class="st0" d="M32.9,62.8c-6.3,0-11.5,5.2-11.5,11.5c0,6.3,5.2,11.5,11.5,11.5s11.5-5.2,11.5-11.5S39.2,62.8,32.9,62.8z
			 M32.9,82.6c-4.5,0-8.3-3.7-8.3-8.3c0-4.5,3.7-8.3,8.3-8.3c4.5,0,8.3,3.7,8.3,8.3C41.2,78.9,37.5,82.6,32.9,82.6z"/>
	</g>
	<g>
		<path class="st0" d="M106,84.2L93.7,61.5c-0.5-0.8-1.5-1.1-2.1-0.6L86,63.6l-3.9-7.3c14.3-8.4,19.3-26,11.4-40.3
			C85.2,1.4,66.7-4.3,51.8,3.5c-15.6,8.1-21.1,27.3-12,42.4c-2.3,1.1-4.4,2.6-6.7,4.1c-2.1-1.5-4.2-2.8-6.2-3.9
			c0.8-3.7-2.1-7.3-6-7.3c-2.3,0-4.1,1.1-5.2,2.9c-5.5-1.1-9.9-0.5-12.7,2.3c-5.4,5.4-3.1,16.9,5.8,30C0.3,86.7-2.5,98.5,3,104
			c7,7,21.6-0.2,30-5.8c8.4,5.7,22.9,13,30,5.8c5.4-5.4,3.1-16.9-5.8-30c3.2-4.7,5.7-9.4,7.1-13.6c5.4,0.3,10.4-0.8,14.9-2.8
			l3.9,7.3l-5.5,2.9c-0.3,0.2-0.6,0.5-0.8,1s-0.2,0.8,0.2,1.3l12.3,22.7c2.4,4.5,8.3,6.2,12.8,3.9C106.8,94.5,108.4,88.8,106,84.2z
			 M32.9,94.5c-7.8-5.7-14.8-12.8-20.3-20.3c5.5-7.6,12.7-14.8,20.3-20.1c7.3,5.4,14.5,12.3,20.3,20.3
			C47.7,81.8,40.5,88.9,32.9,94.5z M20.7,42.2c1.6,0,2.8,1.3,2.8,2.8c0,1.6-1.3,2.8-2.8,2.8c-1.6,0-2.8-1.3-2.8-2.8
			C17.8,43.5,19.1,42.2,20.7,42.2z M5.1,46.5c1.9-1.9,5.2-2.4,9.4-1.5l0,0c0,3.4,2.8,6,6,6c1.8,0,3.4-0.8,4.5-1.9
			c1.6,0.8,3.2,1.8,4.9,2.9c-7.3,5.4-14,12.2-19.3,19.3C3.4,60.3,1.1,50.4,5.1,46.5z M5.1,102.1c-3.7-3.9-1.9-13.6,5.5-25
			c5.4,7.1,12,14,19.3,19.3C23.5,100.8,10.5,107.4,5.1,102.1z M60.7,102.1c-4.1,4.1-13.8,1.8-25-5.5C43,91,49.6,84.4,55,77.2
			C62.5,88.1,64.6,98,60.7,102.1z M55.2,71.6c-5.7-7.6-12.3-14.1-19.5-19.5c1.9-1.3,3.9-2.4,5.8-3.4c4.7,6.2,11.7,10.2,19.5,11.5
			C59.7,63.6,57.8,67.5,55.2,71.6z M61.8,57.1c-6.8-1-13.2-4.5-17.4-9.9c4.7-2.1,12.5-4.4,16.1-0.8C62.6,48.5,63.1,52.4,61.8,57.1z
			 M65.1,57.4c1.3-5.7,0.6-10.4-2.1-13.2c-5-5-14-2.6-20.5,0.3c-8.4-13.5-3.4-30.9,10.6-38c13.6-7.1,30-1.8,37.4,11.2
			c7.5,13.2,2.1,29.4-11.4,36.5C75,56.4,70.3,57.6,65.1,57.4z M100.6,94c-2.9,1.6-6.8,0.5-8.4-2.6L80.7,69.9l11-5.7l11.5,21.4
			C104.7,88.8,103.6,92.5,100.6,94z"/>
	</g>
</g>
</svg>
