<?xml version="1.0" encoding="utf-8"?>
<!-- Generator: Adobe Illustrator 23.0.0, SVG Export Plug-In . SVG Version: 6.00 Build 0)  -->
<svg version="1.1" id="Layer_1" xmlns="http://www.w3.org/2000/svg" xmlns:xlink="http://www.w3.org/1999/xlink" x="0px" y="0px"
	 viewBox="0 0 118 118" style="enable-background:new 0 0 118 118;" xml:space="preserve">
<style type="text/css">
	.st0{fill:#0A6DB7;}
</style>
<g>
	<g>
		<path class="st0" d="M90.7,31.7C90.7,14.2,76.5,0,59.1,0S27.4,14.2,27.4,31.7s14.2,31.7,31.7,31.7S90.7,49.1,90.7,31.7z"/>
		<path class="st0" d="M71.6,69.9c-4,1.3-8.2,2-12.5,2s-8.5-0.7-12.5-2c-12.7-4.2-26.8-0.7-35.1,9.5c-6.2,7.6-9.9,17.4-9.9,27.9
			c0,5.9,4.7,10.6,10.6,10.6H106c5.9,0,10.6-4.7,10.6-10.6c0-10.5-3.7-20.3-9.9-27.9C98.2,69.2,84.2,65.8,71.6,69.9z"/>
	</g>
</g>
</svg>
