<?xml version="1.0" encoding="utf-8"?>
<!-- Generator: Adobe Illustrator 23.0.0, SVG Export Plug-In . SVG Version: 6.00 Build 0)  -->
<svg version="1.1" id="Layer_1" xmlns="http://www.w3.org/2000/svg" xmlns:xlink="http://www.w3.org/1999/xlink" x="0px" y="0px"
	 viewBox="0 0 107 107" style="enable-background:new 0 0 107 107;" xml:space="preserve">
<style type="text/css">
	.st0{fill:#0E6EB7;}
</style>
<g>
	<g>
		<g>
			<path class="st0" d="M101.8,44.6c-2.9,0-5.3,2.4-5.3,5.3v16.2l-2.3,2.6c-0.3-1-1-1.8-1.6-2.4c-2.3-2.1-5.8-1.8-7.8,0.5l-9.2,11.6
				c-0.8,1.1-1.1,2.4-1.1,3.7v10.2h-1.6c-1,0-1.9,0.8-1.9,1.9v10.8c0,1,0.8,1.9,1.9,1.9h24.6c1,0,1.9-0.8,1.9-1.9V94.2
				c0-1-0.8-1.9-1.9-1.9h-2.3v-2.6c0-0.8,0.2-1.6,0.6-2.3l10.5-14.4c0.5-0.6,0.6-1.6,0.6-2.4V49.9C107.2,47,104.7,44.6,101.8,44.6z
				 M96.2,103.6H74.3v-8.1h21.8V103.6z M103.9,70.6c0,0.2,0,0.5-0.2,0.6L93.3,85.7c-0.8,1.3-1.1,2.6-1.1,4v2.6H77.9v-10
				c0-0.6,0.2-1.3,0.5-1.8L87.4,69c0.6-1,2.1-1,2.9-0.2c1.3,1.3,1.3,2.9,0.3,4l-1.6,1.9c-0.6,0.6-0.5,1.6,0.2,2.3
				c0.6,0.6,1.6,0.5,2.3-0.2l7.6-8.7c0.3-0.3,0.5-0.8,0.5-1.1V49.9c0-1.1,1-2.1,2.1-2.1s2.1,1,2.1,2.1v20.7H103.9z"/>
		</g>
	</g>
	<g>
		<g>
			<path class="st0" d="M34.6,92.3H33v-10c0-1.3-0.5-2.6-1.3-3.9l-9.1-11.5c-1.8-2.3-5.3-2.9-7.8-0.5c-0.6,0.6-1.1,1.5-1.5,2.3
				l-2.1-2.4V50.1c0-2.9-2.4-5.3-5.3-5.3s-5.3,2.4-5.3,5.3v20.5c0,0.8,0.3,1.6,0.8,2.4l10.3,14.2c0.5,0.6,0.6,1.5,0.6,2.4v2.6H10
				c-1,0-1.9,0.8-1.9,1.9v10.8c0,1,0.8,1.9,1.9,1.9h24.6c1,0,1.9-0.8,1.9-1.9V94.2C36.5,93.1,35.7,92.3,34.6,92.3z M14.2,85.5
				L3.9,71.3c-0.2-0.2-0.2-0.3-0.2-0.6V50.1c0-1.1,1-2.1,2.1-2.1s2.1,1,2.1,2.1v16.6c0,0.3,0.2,1,0.5,1.1l7.6,8.7
				c0.6,0.6,1.6,0.8,2.3,0.2s0.8-1.6,0.2-2.3l-1.6-1.9c-1-1.1-0.8-2.9,0.2-3.9c1.1-1,2.4-0.8,3.1,0.2l9.1,11.5
				c0.3,0.5,0.6,1.3,0.6,1.9v10H15.5v-2.6C15.5,88.3,15,86.8,14.2,85.5z M33.3,103.6H11.5v-8.1h21.8V103.6z"/>
		</g>
	</g>
	<g>
		<g>
			<path class="st0" d="M23.1,64c23.6,0,38,0,61.4,0c1,0,1.6-0.6,1.6-1.6c0-19.2,0-14.4,0-33.3c0-1-0.6-1.6-1.6-1.6
				c-13.7,0-47.5,0-61.4,0c-1,0-1.6,0.6-1.6,1.6v33.3C21.5,63.2,22.1,64,23.1,64z M33.6,30.5h40.2c0.6,4.7,4.4,8.4,9.1,9.1v12
				c-4.7,0.6-8.2,4.4-9.1,9.2H33.6c-0.6-4.7-4.4-8.4-9.1-9.1v-12C29.2,39,33,35.2,33.6,30.5z M24.7,55c2.9,0.6,5,2.9,5.7,5.8h-5.7
				V55z M77.3,60.8c0.6-2.9,2.9-5.2,5.7-5.8v5.8H77.3z M82.9,36.4c-2.9-0.6-5-2.9-5.7-5.8h5.7V36.4z M30.4,30.5
				c-0.6,2.9-2.9,5.2-5.7,5.8v-5.8H30.4z"/>
		</g>
	</g>
	<g>
		<g>
			<path class="st0" d="M53.8,59.5c7.6,0,13.7-6.3,13.7-13.9s-6.1-13.9-13.7-13.9S40.1,38,40.1,45.6S46.2,59.5,53.8,59.5z
				 M53.8,35.1c5.8,0,10.5,4.8,10.5,10.7c0,5.8-4.7,10.7-10.5,10.7c-5.8,0-10.5-4.8-10.5-10.7S48,35.1,53.8,35.1z"/>
		</g>
	</g>
	<g>
		<g>
			<path class="st0" d="M49.9,48.5l-1.5,1.8c1.5,1.3,3.1,1.9,4.8,2.1v1.5h1.3v-1.5c1.3,0,2.4-0.5,3.2-1.1c0.8-0.8,1.3-1.6,1.3-2.9
				c0-1.1-0.3-2.1-1.1-2.6c-0.6-0.6-1.8-1.1-3.4-1.5l0,0v-3.7c1,0.2,1.9,0.5,2.7,1.1l1.3-1.8c-1.3-0.8-2.6-1.5-4-1.5v-1.1h-1.3v1
				c-1.3,0-2.3,0.5-3.1,1.1c-0.8,0.8-1.1,1.6-1.1,2.7c0,1.1,0.3,1.9,1,2.6s1.8,1.1,3.2,1.5v4C52.2,50.1,51.1,49.5,49.9,48.5z
				 M54.6,46.7c0.8,0.2,1.3,0.5,1.6,0.8c0.3,0.3,0.5,0.6,0.5,1.1c0,0.5-0.2,0.8-0.5,1.1s-0.8,0.5-1.5,0.5v-3.6H54.6z M51.9,43.2
				c-0.3-0.3-0.3-0.6-0.3-1.1s0.2-0.8,0.5-1.1c0.3-0.3,0.8-0.5,1.5-0.5v3.4C52.7,43.8,52.2,43.5,51.9,43.2z"/>
		</g>
	</g>
	<g>
		<g>
			<path class="st0" d="M51.1,25.9c1,0,1.9-0.2,2.7-0.3c0.8,0.2,1.8,0.3,2.7,0.3c7.1,0,12.9-5.8,12.9-12.9S63.7,0,56.6,0
				c-1,0-1.8,0.2-2.7,0.3c-0.8,0-1.8-0.2-2.7-0.2C44,0.2,38.1,6,38.1,13.1S44,25.9,51.1,25.9z M66.3,13.1c0,3.9-2.3,7.3-5.7,8.7
				c2.1-2.3,3.6-5.3,3.6-8.7s-1.3-6.5-3.6-8.7C63.8,5.8,66.3,9.2,66.3,13.1z M51.1,3.4c5.3,0,9.7,4.4,9.7,9.7s-4.4,9.7-9.7,9.7
				s-9.7-4.4-9.7-9.7S45.7,3.4,51.1,3.4z"/>
		</g>
	</g>
	<g>
		<g>
			<path class="st0" d="M47.5,15.7l-1.3,1.6c1.3,1.1,2.9,1.8,4.5,1.9v1.3h1.1v-1.3c1.3,0,2.3-0.5,3.1-1.1c0.8-0.6,1.1-1.6,1.1-2.6
				c0-1.1-0.3-1.9-1-2.4c-0.6-0.5-1.6-1-3.1-1.3l0,0V8.4c1,0.2,1.8,0.5,2.6,1.1l1.1-1.6c-1.1-0.8-2.4-1.3-3.9-1.5V5.3h-1.1v1
				c-1.1,0-2.1,0.5-2.9,1.1C47,8.1,46.7,9.1,46.7,10c0,1.1,0.3,1.9,1,2.4c0.6,0.5,1.6,1,3.1,1.3v3.6C49.6,17.1,48.5,16.6,47.5,15.7z
				 M51.9,14.1c0.8,0.2,1.3,0.5,1.5,0.6c0.3,0.3,0.5,0.6,0.5,1c0,0.5-0.2,0.8-0.5,1.1c-0.3,0.3-0.8,0.5-1.5,0.5V14.1z M49.3,10.8
				c-0.2-0.3-0.3-0.6-0.3-1c0-0.5,0.2-0.8,0.5-1c0.3-0.3,0.8-0.5,1.3-0.5v3.2C50.1,11.3,49.6,11,49.3,10.8z"/>
		</g>
	</g>
</g>
</svg>
