<?xml version="1.0" encoding="utf-8"?>
<!-- Generator: Adobe Illustrator 23.0.0, SVG Export Plug-In . SVG Version: 6.00 Build 0)  -->
<svg version="1.1" id="Layer_1" xmlns="http://www.w3.org/2000/svg" xmlns:xlink="http://www.w3.org/1999/xlink" x="0px" y="0px"
	 viewBox="0 0 107 107" style="enable-background:new 0 0 107 107;" xml:space="preserve">
<style type="text/css">
	.st0{fill:#0A6DB7;}
</style>
<g>
	<g>
		<g>
			<path class="st0" d="M97.9,50.5H83.7c-5,0-9.1,4.7-9.1,10.4v24.8c0,1,0.6,1.6,1.6,1.6h4.5v15.2c0,2.4,1.9,4.5,4.4,4.5h11.2
				c2.4,0,4.4-1.9,4.4-4.5V87.3h4.7c1,0,1.6-0.6,1.6-1.6v-25C107,55.1,102.9,50.5,97.9,50.5z M103.8,83.9h-2.9V71.8
				c0-1-0.6-1.6-1.6-1.6s-1.6,0.6-1.6,1.6v30.6c0,0.6-0.5,1.3-1.1,1.3h-4.1V86.3c0-1-0.6-1.6-1.6-1.6s-1.6,0.6-1.6,1.6v17.3h-4.1
				c-0.6,0-1.1-0.5-1.1-1.3V71.8c0-1-0.6-1.6-1.6-1.6s-1.6,0.6-1.6,1.6v12.2h-2.9V60.7c0-3.9,2.6-7.1,5.8-7.1h14.3
				c3.2,0,5.8,3.2,5.8,7.1V83.9z"/>
		</g>
	</g>
	<g>
		<g>
			<path class="st0" d="M90.8,29.4c-5.5,0-10.1,4.5-10.1,10.2s4.5,10.2,10.1,10.2s10.1-4.5,10.1-10.2S96.3,29.4,90.8,29.4z
				 M90.8,46.5c-3.7,0-6.8-3.1-6.8-7s3.1-7,6.8-7c3.7,0,6.8,3.1,6.8,7S94.5,46.5,90.8,46.5z"/>
		</g>
	</g>
	<g>
		<g>
			<path class="st0" d="M60.6,50.5H46.4c-5,0-9.1,4.7-9.1,10.4v24.8c0,1,0.6,1.6,1.6,1.6h4.5v15.2c0,2.4,1.9,4.5,4.4,4.5H59
				c2.4,0,4.4-1.9,4.4-4.5V87.3h4.7c1,0,1.6-0.6,1.6-1.6v-25C69.7,55.1,65.7,50.5,60.6,50.5z M66.5,83.9h-2.9V71.8
				c0-1-0.6-1.6-1.6-1.6s-1.6,0.6-1.6,1.6v30.6c0,0.6-0.5,1.3-1.1,1.3h-4.1V86.3c0-1-0.6-1.6-1.6-1.6s-1.6,0.6-1.6,1.6v17.3h-4.1
				c-0.6,0-1.1-0.5-1.1-1.3V71.8c0-1-0.6-1.6-1.6-1.6c-1,0-1.6,0.6-1.6,1.6v12.2h-2.9V60.7c0-3.9,2.6-7.1,5.8-7.1h14.3
				c3.2,0,5.8,3.2,5.8,7.1V83.9z"/>
		</g>
	</g>
	<g>
		<g>
			<path class="st0" d="M53.5,29.4c-5.5,0-10.1,4.5-10.1,10.2S48,49.9,53.5,49.9s10.1-4.5,10.1-10.2S59,29.4,53.5,29.4z M53.5,46.5
				c-3.7,0-6.8-3.1-6.8-7s3.1-7,6.8-7c3.7,0,6.8,3.1,6.8,7S57.2,46.5,53.5,46.5z"/>
		</g>
	</g>
	<g>
		<g>
			<path class="st0" d="M23.3,50.5H9.1c-5,0-9.1,4.5-9.1,10.2v24.8c0,1,0.6,1.6,1.6,1.6h4.5v15.2c0,2.4,1.9,4.5,4.4,4.5h11.2
				c2.4,0,4.4-1.9,4.4-4.5V87.2h4.7c1,0,1.6-0.6,1.6-1.6V60.7C32.4,55.1,28.4,50.5,23.3,50.5z M29.2,83.9h-2.9V71.8
				c0-1-0.6-1.6-1.6-1.6S23,70.8,23,71.8v30.6c0,0.6-0.5,1.3-1.1,1.3h-4.1V86.3c0-1-0.6-1.6-1.6-1.6c-1,0-1.6,0.6-1.6,1.6v17.3h-3.9
				c-0.6,0-1.1-0.5-1.1-1.3V71.8c0-1-0.6-1.6-1.6-1.6s-1.6,0.6-1.6,1.6v12.2H3.2V60.7c0-3.9,2.6-7.1,5.8-7.1h14.3
				c3.2,0,5.8,3.2,5.8,7.1V83.9z"/>
		</g>
	</g>
	<g>
		<g>
			<path class="st0" d="M16.2,29.4c-5.5,0-10.1,4.5-10.1,10.2s4.5,10.2,10.1,10.2s10.1-4.5,10.1-10.2S21.7,29.4,16.2,29.4z
				 M16.2,46.5c-3.7,0-6.8-3.1-6.8-7s3.1-7,6.8-7s6.8,3.1,6.8,7S19.9,46.5,16.2,46.5z"/>
		</g>
	</g>
	<g>
		<g>
			<path class="st0" d="M7.8,18.3l-1.3,8.4c-0.2,0.6,0.2,1.3,0.6,1.6s1.1,0.5,1.8,0.2l7.5-3.9l7.5,3.9c0.5,0.3,1.1,0.2,1.8-0.2
				c0.5-0.3,0.8-1,0.6-1.6l-1.5-8.3l6-5.8c0.5-0.5,0.6-1.1,0.5-1.6c-0.3-0.8-0.8-1.3-1.5-1.3l-8.4-1.3l-3.7-7.6
				c-0.5-1.1-2.4-1.1-2.9,0L11,8.4L2.8,9.7c-0.6,0-1.1,0.5-1.5,1.1c-0.2,0.6,0,1.3,0.5,1.6L7.8,18.3z M12.3,11.4
				c0.5,0,1-0.5,1.3-0.8l2.6-5.4l2.6,5.4c0.2,0.5,0.6,0.8,1.3,0.8l6,0.8l-4.4,4.2c-0.3,0.3-0.5,1-0.5,1.5l1,6l-5.4-2.8
				C16.7,21,16.5,21,16.2,21c-0.3,0-0.5,0-0.8,0.2l-5.4,2.8l1-6c0.2-0.5-0.2-1.1-0.5-1.5l-4.2-4.1L12.3,11.4z"/>
		</g>
	</g>
	<g>
		<g>
			<path class="st0" d="M45.1,18.3l-1.5,8.3c-0.2,0.6,0.2,1.3,0.6,1.6s1.1,0.5,1.8,0.2l7.5-3.9l7.5,3.9c0.5,0.3,1.1,0.2,1.8-0.2
				c0.5-0.3,0.8-1,0.6-1.6l-1.5-8.3l6-5.8c0.5-0.5,0.6-1.1,0.5-1.6c-0.2-0.6-0.8-1.1-1.3-1.1l-8.4-1.3L55,0.7
				c-0.5-1.1-2.4-1.1-2.9,0l-3.7,7.6l-8.4,1.3c-0.6,0.2-1.1,0.5-1.3,1.1c-0.2,0.6,0,1.3,0.5,1.6L45.1,18.3z M49.6,11.4
				c0.5,0,1-0.5,1.3-0.8l2.6-5.4l2.6,5.4c0.2,0.5,0.6,0.8,1.3,0.8l6,0.8L59,16.5c-0.3,0.3-0.5,1-0.5,1.5l1,6l-5.4-2.8
				C54,21,53.8,21,53.5,21s-0.5,0-0.8,0.2l-5.3,2.8l1-6c0.2-0.5-0.2-1.1-0.5-1.5l-4.4-4.2L49.6,11.4z"/>
		</g>
	</g>
	<g>
		<g>
			<path class="st0" d="M82.4,18.3l-1.5,8.3c-0.2,0.6,0.2,1.3,0.6,1.6s1.1,0.5,1.8,0.2l7.5-3.9l7.5,3.9c0.5,0.3,1.1,0.2,1.8-0.2
				c0.5-0.3,0.8-1,0.6-1.6l-1.5-8.3l6-5.8c0.5-0.5,0.6-1.1,0.5-1.6c-0.3-0.6-0.8-1.1-1.5-1.1l-8.4-1.3l-3.7-7.6
				c-0.2-0.5-0.6-0.8-1.3-0.8c-0.6,0-1.1,0.3-1.5,1l-3.7,7.6l-8.4,1.1c-0.6,0.2-1.1,0.5-1.3,1.1s0,1.3,0.5,1.6L82.4,18.3z
				 M86.9,11.4c0.5,0,1-0.5,1.3-0.8l2.6-5.4l2.6,5.4c0.2,0.5,0.6,0.8,1.3,0.8l6,0.8l-4.4,4.2c-0.3,0.3-0.5,1-0.5,1.5l1,6l-5.3-2.8
				c-0.5-0.3-1-0.3-1.5,0l-5.3,2.8l1-6c0.2-0.5-0.2-1.1-0.5-1.5l-4.4-4.2L86.9,11.4z"/>
		</g>
	</g>
</g>
</svg>
