<?xml version="1.0" encoding="utf-8"?>
<!-- Generator: Adobe Illustrator 19.0.0, SVG Export Plug-In . SVG Version: 6.00 Build 0)  -->
<svg version="1.1" id="Layer_1" xmlns="http://www.w3.org/2000/svg" xmlns:xlink="http://www.w3.org/1999/xlink" x="0px" y="0px"
	 viewBox="-203 352.4 205 88.6" style="enable-background:new -203 352.4 205 88.6;" xml:space="preserve">
<style type="text/css">
	.st0{display:none;}
	.st1{display:inline;}
	.st2{fill:#5761AC;}
	.st3{fill:#FFFFFF;}
</style>
<g id="XMLID_10_" class="st0">
	
		<text id="XMLID_9_" transform="matrix(1 0 0 1 -115.174 602.5841)" class="st1" style="font-family:'Poppins-Black'; font-size:72px;">avi</text>
	
		<text id="XMLID_8_" transform="matrix(1 0 0 1 -202.2623 629.6078)" style="display:inline;opacity:0.51;enable-background:new    ; font-family:'Lato-Black'; font-size:19px;">Insurance Group</text>
	<g id="XMLID_14_" class="st1">
		<polygon id="XMLID_15_" class="st2" points="-169,602.6 -152.6,602.6 -152.2,601.7 -142.5,577.2 -142.5,578.7 -131,551.6 
			-147.1,551.6 -161.1,582.2 -175.5,551.6 -190.6,551.6 		"/>
		<polygon id="XMLID_16_" class="st2" points="-200.6,564.7 -200.6,602.6 -184.6,602.6 		"/>
		<polygon id="XMLID_17_" class="st2" points="-137,602.6 -122.1,602.6 -122.1,567.3 		"/>
	</g>
</g>
<g id="group" class="st0">
	<g id="XMLID_2_" class="st1">
		<polygon id="XMLID_7_" class="st2" points="-155.2,843.4 -138.8,843.4 -138.4,842.4 -128.7,817.9 -128.7,819.5 -117.2,792.4 
			-133.3,792.4 -147.3,823 -161.7,792.4 -176.8,792.4 		"/>
		<polygon id="XMLID_6_" class="st2" points="-186.9,805.4 -186.9,843.4 -170.8,843.4 		"/>
		<polygon id="XMLID_5_" class="st2" points="-123.2,843.4 -108.3,843.4 -108.3,808.1 		"/>
	</g>
	
		<text id="XMLID_4_" transform="matrix(1 0 0 1 -102.5358 843.1005)" class="st1" style="font-family:'Poppins-Black'; font-size:72px;">avi</text>
	
		<text id="XMLID_3_" transform="matrix(1 0 0 1 -192.6241 870.1241)" style="display:inline;opacity:0.51;enable-background:new    ; font-family:'Poppins-Black'; font-size:24px;">Insurance Group</text>
</g>
<g id="XMLID_54_">
	<path id="XMLID_55_" class="st3" d="M-99,371c5.4,0,9.3,2.4,11.2,6v-5.5h15.9v40.6h-15.9v-5.5c-1.9,3.7-5.8,6-11.2,6
		c-9.4,0-16.8-7.7-16.8-20.8S-108.4,371-99,371z M-93.7,384.9c-3.3,0-5.9,2.4-5.9,6.8s2.6,6.8,5.9,6.8s5.9-2.4,5.9-6.8
		S-90.4,384.9-93.7,384.9z"/>
	<path id="XMLID_58_" class="st3" d="M-50.7,371.5l6.6,25.4l6.5-25.4h17l-13.5,40.6H-54l-13.5-40.6
		C-67.5,371.5-50.7,371.5-50.7,371.5z"/>
	<path id="XMLID_60_" class="st3" d="M-17.5,360.4c0-4.5,3.5-8,9.2-8c5.6,0,9.1,3.5,9.1,8c0,4.4-3.5,7.8-9.1,7.8
		C-14,368.2-17.5,364.8-17.5,360.4z M-16.4,371.5h16v40.6h-16V371.5z"/>
</g>
<g id="XMLID_1_" class="st4">
	<path id="XMLID_11_" class="st3" d="M-199.8,439.1h-3.2v-13.8h3.2V439.1z"/>
	<path id="XMLID_23_" class="st3" d="M-183.3,425.3v13.8h-1.7c-0.2,0-0.5,0-0.6-0.1c-0.1-0.1-0.3-0.2-0.5-0.4l-6.5-8.3
		c0,0.2,0,0.5,0.1,0.7c0,0.2,0,0.4,0,0.7v7.4h-2.9v-13.8h1.7c0.1,0,0.3,0,0.4,0c0.1,0,0.2,0,0.3,0.1c0.1,0,0.1,0.1,0.2,0.1
		c0.1,0.1,0.1,0.1,0.2,0.3l6.6,8.3c0-0.3-0.1-0.5-0.1-0.8c0-0.3,0-0.5,0-0.7v-7.3H-183.3z"/>
	<path id="XMLID_25_" class="st3" d="M-171.2,428.1c-0.1,0.2-0.2,0.3-0.3,0.3s-0.2,0.1-0.4,0.1c-0.1,0-0.3,0-0.5-0.1
		c-0.2-0.1-0.4-0.2-0.6-0.3c-0.2-0.1-0.5-0.2-0.7-0.3s-0.6-0.1-0.9-0.1c-0.6,0-1,0.1-1.3,0.4c-0.3,0.3-0.4,0.6-0.4,1
		c0,0.3,0.1,0.5,0.3,0.7s0.4,0.3,0.7,0.5c0.3,0.1,0.6,0.3,1,0.4c0.4,0.1,0.7,0.2,1.1,0.4c0.4,0.1,0.8,0.3,1.1,0.5
		c0.4,0.2,0.7,0.4,1,0.7c0.3,0.3,0.5,0.6,0.7,1c0.2,0.4,0.3,0.9,0.3,1.5s-0.1,1.2-0.3,1.8c-0.2,0.6-0.5,1-1,1.5
		c-0.4,0.4-0.9,0.7-1.6,1c-0.6,0.2-1.3,0.4-2.1,0.4c-0.4,0-0.9,0-1.3-0.1c-0.4-0.1-0.9-0.2-1.3-0.4s-0.8-0.4-1.2-0.6
		c-0.4-0.2-0.7-0.5-1-0.7l1-1.5c0.1-0.1,0.2-0.2,0.3-0.3c0.1-0.1,0.3-0.1,0.4-0.1c0.2,0,0.4,0.1,0.6,0.2c0.2,0.1,0.4,0.3,0.7,0.4
		c0.2,0.1,0.5,0.3,0.8,0.4c0.3,0.1,0.7,0.2,1.1,0.2c0.6,0,1-0.1,1.4-0.4c0.4-0.3,0.5-0.7,0.5-1.2c0-0.3-0.1-0.6-0.3-0.8
		c-0.2-0.2-0.4-0.4-0.7-0.5c-0.3-0.1-0.6-0.3-1-0.4c-0.4-0.1-0.7-0.2-1.1-0.3c-0.4-0.1-0.8-0.3-1.1-0.5c-0.4-0.2-0.7-0.4-1-0.7
		c-0.3-0.3-0.5-0.7-0.7-1.1c-0.2-0.4-0.3-1-0.3-1.6c0-0.5,0.1-1,0.3-1.5s0.5-0.9,0.9-1.3c0.4-0.4,0.9-0.7,1.5-0.9
		c0.6-0.2,1.3-0.3,2-0.3c0.4,0,0.8,0,1.2,0.1c0.4,0.1,0.8,0.2,1.1,0.3s0.7,0.3,1,0.5c0.3,0.2,0.6,0.4,0.8,0.6L-171.2,428.1z"/>
	<path id="XMLID_27_" class="st3" d="M-160.8,436.6c0.4,0,0.8-0.1,1.2-0.2c0.3-0.1,0.6-0.3,0.9-0.6c0.2-0.3,0.4-0.6,0.5-1
		c0.1-0.4,0.2-0.8,0.2-1.3v-8.2h3.2v8.2c0,0.8-0.1,1.6-0.4,2.3s-0.7,1.3-1.2,1.8s-1.1,0.9-1.9,1.2c-0.7,0.3-1.6,0.4-2.5,0.4
		c-0.9,0-1.8-0.1-2.5-0.4c-0.7-0.3-1.4-0.7-1.9-1.2s-0.9-1.1-1.2-1.8c-0.3-0.7-0.4-1.5-0.4-2.3v-8.2h3.2v8.2c0,0.5,0.1,0.9,0.2,1.3
		c0.1,0.4,0.3,0.7,0.5,1c0.2,0.3,0.5,0.5,0.9,0.6C-161.7,436.5-161.3,436.6-160.8,436.6z"/>
	<path id="XMLID_29_" class="st3" d="M-139.3,439.1h-2.9c-0.5,0-0.9-0.2-1.2-0.6l-2.3-4c-0.1-0.2-0.2-0.3-0.4-0.4
		c-0.1-0.1-0.3-0.1-0.6-0.1h-0.8v5.1h-3.2v-13.8h4.5c1,0,1.9,0.1,2.6,0.3c0.7,0.2,1.3,0.5,1.7,0.9c0.4,0.4,0.8,0.8,1,1.3
		c0.2,0.5,0.3,1,0.3,1.6c0,0.4-0.1,0.9-0.2,1.3c-0.1,0.4-0.3,0.8-0.5,1.1c-0.2,0.3-0.5,0.6-0.9,0.9c-0.3,0.3-0.7,0.5-1.2,0.7
		c0.2,0.1,0.4,0.2,0.6,0.4c0.2,0.2,0.3,0.4,0.5,0.6L-139.3,439.1z M-146.2,431.8c0.4,0,0.8-0.1,1.1-0.2c0.3-0.1,0.6-0.3,0.8-0.5
		c0.2-0.2,0.3-0.4,0.4-0.7c0.1-0.3,0.1-0.5,0.1-0.9c0-0.6-0.2-1.1-0.6-1.4c-0.4-0.3-1-0.5-1.8-0.5h-1.3v4.1L-146.2,431.8
		L-146.2,431.8z"/>
	<path id="XMLID_32_" class="st3" d="M-124,439.1h-2.5c-0.3,0-0.5-0.1-0.7-0.2s-0.3-0.3-0.4-0.5l-0.8-2.4h-5.3l-0.8,2.4
		c-0.1,0.2-0.2,0.3-0.4,0.5c-0.2,0.2-0.4,0.2-0.7,0.2h-2.4l5.4-13.8h3.3L-124,439.1z M-129.1,433.8l-1.3-3.8
		c-0.1-0.2-0.2-0.5-0.3-0.9c-0.1-0.3-0.2-0.7-0.3-1.1c-0.1,0.4-0.2,0.7-0.3,1.1c-0.1,0.3-0.2,0.6-0.3,0.9l-1.3,3.8H-129.1z"/>
	<path id="XMLID_35_" class="st3" d="M-109.1,425.3v13.8h-1.7c-0.2,0-0.5,0-0.6-0.1s-0.3-0.2-0.5-0.4l-6.5-8.3c0,0.2,0,0.5,0.1,0.7
		c0,0.2,0,0.4,0,0.7v7.4h-2.8v-13.8h1.7c0.1,0,0.3,0,0.4,0s0.2,0,0.3,0.1c0.1,0,0.1,0.1,0.2,0.1c0.1,0.1,0.1,0.1,0.2,0.3l6.6,8.3
		c0-0.3-0.1-0.5-0.1-0.8c0-0.3,0-0.5,0-0.7v-7.3H-109.1z"/>
	<path id="XMLID_37_" class="st3" d="M-95.4,435.5c0.1,0,0.2,0,0.2,0c0.1,0,0.1,0.1,0.2,0.1l1.3,1.3c-0.6,0.7-1.3,1.3-2.1,1.6
		c-0.8,0.4-1.8,0.6-3,0.6c-1.1,0-2-0.2-2.8-0.5c-0.8-0.4-1.5-0.9-2.1-1.5c-0.6-0.6-1-1.4-1.3-2.2c-0.3-0.9-0.5-1.8-0.5-2.8
		s0.2-2,0.5-2.8c0.3-0.9,0.8-1.6,1.4-2.2c0.6-0.6,1.3-1.1,2.2-1.5c0.8-0.3,1.8-0.5,2.8-0.5c0.5,0,1,0,1.5,0.1s0.9,0.2,1.3,0.4
		c0.4,0.2,0.8,0.4,1.1,0.6c0.3,0.2,0.6,0.5,0.9,0.7l-1.1,1.5c-0.1,0.1-0.2,0.2-0.2,0.2s-0.2,0.1-0.4,0.1c-0.1,0-0.2,0-0.3-0.1
		c-0.1-0.1-0.2-0.1-0.3-0.2c-0.1-0.1-0.2-0.2-0.4-0.2c-0.1-0.1-0.3-0.2-0.5-0.2c-0.2-0.1-0.4-0.1-0.7-0.2c-0.3-0.1-0.5-0.1-0.9-0.1
		c-0.5,0-1,0.1-1.5,0.3s-0.8,0.5-1.1,0.9c-0.3,0.4-0.6,0.8-0.7,1.4c-0.1,0.6-0.3,1.2-0.3,1.9c0,0.7,0.1,1.3,0.3,1.9
		c0.2,0.6,0.5,1,0.8,1.4c0.3,0.4,0.7,0.7,1.2,0.9c0.4,0.2,0.9,0.3,1.4,0.3c0.3,0,0.6,0,0.8,0c0.2,0,0.5-0.1,0.7-0.1s0.4-0.2,0.6-0.3
		s0.4-0.3,0.6-0.4c0.1-0.1,0.2-0.1,0.2-0.2C-95.6,435.6-95.5,435.5-95.4,435.5z"/>
	<path id="XMLID_39_" class="st3" d="M-87.3,427.7v3.2h4.4v2.5h-4.4v3.3h5.7v2.5h-8.9v-13.9h8.9v2.5L-87.3,427.7L-87.3,427.7z"/>
	<path id="XMLID_41_" class="st3" d="M-65.1,431.9h4.9v5.8c-0.7,0.5-1.5,0.9-2.3,1.1c-0.8,0.2-1.6,0.4-2.5,0.4
		c-1.1,0-2.2-0.2-3.1-0.5c-0.9-0.4-1.7-0.9-2.4-1.5c-0.7-0.6-1.2-1.4-1.5-2.2c-0.4-0.9-0.5-1.8-0.5-2.8s0.2-2,0.5-2.8
		c0.3-0.9,0.8-1.6,1.5-2.2c0.7-0.6,1.4-1.1,2.3-1.5c0.9-0.3,1.9-0.5,3-0.5c0.6,0,1.1,0,1.6,0.1c0.5,0.1,1,0.2,1.4,0.4
		c0.4,0.2,0.8,0.4,1.2,0.6c0.4,0.2,0.7,0.5,1,0.7l-0.9,1.4c-0.1,0.2-0.3,0.4-0.6,0.4c-0.2,0.1-0.5,0-0.7-0.2
		c-0.3-0.2-0.5-0.3-0.7-0.4c-0.2-0.1-0.5-0.2-0.7-0.3s-0.5-0.1-0.7-0.2c-0.2-0.1-0.6,0-0.9,0c-0.6,0-1.1,0.1-1.6,0.3
		s-0.9,0.5-1.2,0.9s-0.6,0.9-0.8,1.4s-0.3,1.1-0.3,1.8c0,0.7,0.1,1.4,0.3,2s0.5,1.1,0.9,1.4c0.4,0.3,0.8,0.7,1.3,0.9
		c0.5,0.2,1.1,0.3,1.7,0.3c0.4,0,0.7,0,1-0.1s0.6-0.2,0.9-0.3v-2.1h-1.4c-0.2,0-0.4-0.1-0.5-0.2c-0.1-0.1-0.2-0.2-0.2-0.4V431.9z"/>
	<path id="XMLID_43_" class="st3" d="M-45,439.1h-2.9c-0.5,0-0.9-0.2-1.2-0.6l-2.3-4c-0.1-0.2-0.2-0.3-0.4-0.4
		c-0.1-0.1-0.3-0.1-0.6-0.1h-0.8v5.1h-3.2v-13.8h4.5c1,0,1.9,0.1,2.6,0.3c0.7,0.2,1.3,0.5,1.7,0.9s0.8,0.8,1,1.3s0.3,1,0.3,1.6
		c0,0.4-0.1,0.9-0.2,1.3c-0.1,0.4-0.3,0.8-0.5,1.1c-0.2,0.3-0.5,0.6-0.9,0.9c-0.3,0.3-0.7,0.5-1.2,0.7c0.2,0.1,0.4,0.2,0.6,0.4
		c0.2,0.2,0.3,0.4,0.5,0.6L-45,439.1z M-51.8,431.8c0.4,0,0.8-0.1,1.1-0.2s0.6-0.3,0.8-0.5c0.2-0.2,0.3-0.4,0.4-0.7
		c0.1-0.3,0.1-0.5,0.1-0.9c0-0.6-0.2-1.1-0.6-1.4c-0.4-0.3-1-0.5-1.8-0.5h-1.3v4.1L-51.8,431.8L-51.8,431.8z"/>
	<path id="XMLID_46_" class="st3" d="M-28.8,432.2c0,1-0.2,1.9-0.5,2.8s-0.8,1.6-1.5,2.2c-0.7,0.6-1.4,1.1-2.3,1.5
		c-0.9,0.4-1.9,0.5-2.9,0.5c-1.1,0-2.1-0.2-2.9-0.5c-0.9-0.4-1.6-0.9-2.3-1.5c-0.6-0.6-1.1-1.4-1.5-2.2c-0.3-0.9-0.5-1.8-0.5-2.8
		s0.2-1.9,0.5-2.8s0.8-1.6,1.5-2.2c0.6-0.6,1.4-1.1,2.3-1.5c0.9-0.4,1.9-0.5,2.9-0.5c1.1,0,2.1,0.2,2.9,0.5c0.8,0.3,1.6,0.9,2.3,1.5
		c0.6,0.6,1.1,1.4,1.5,2.2C-28.9,430.3-28.8,431.2-28.8,432.2z M-32.1,432.2c0-0.7-0.1-1.3-0.3-1.8s-0.4-1-0.8-1.4
		c-0.3-0.4-0.7-0.7-1.2-0.9c-0.5-0.2-1-0.3-1.6-0.3s-1.2,0.1-1.7,0.3c-0.5,0.2-0.9,0.5-1.2,0.9c-0.3,0.4-0.6,0.8-0.8,1.4
		c-0.2,0.5-0.3,1.2-0.3,1.8c0,0.7,0.1,1.3,0.3,1.9c0.2,0.5,0.4,1,0.8,1.4c0.3,0.4,0.7,0.7,1.2,0.9c0.5,0.2,1,0.3,1.7,0.3
		c0.6,0,1.2-0.1,1.6-0.3c0.5-0.2,0.9-0.5,1.2-0.9s0.6-0.8,0.8-1.4C-32.1,433.5-32.1,432.9-32.1,432.2z"/>
	<path id="XMLID_49_" class="st3" d="M-19.4,436.6c0.4,0,0.8-0.1,1.2-0.2c0.3-0.1,0.6-0.3,0.9-0.6c0.2-0.3,0.4-0.6,0.5-1
		c0.1-0.4,0.2-0.8,0.2-1.3v-8.2h3.2v8.2c0,0.8-0.1,1.6-0.4,2.3c-0.3,0.7-0.7,1.3-1.2,1.8s-1.1,0.9-1.9,1.2c-0.7,0.3-1.6,0.4-2.5,0.4
		s-1.8-0.1-2.5-0.4c-0.7-0.3-1.4-0.7-1.9-1.2s-0.9-1.1-1.2-1.8c-0.3-0.7-0.4-1.5-0.4-2.3v-8.2h3.2v8.2c0,0.5,0.1,0.9,0.2,1.3
		c0.1,0.4,0.3,0.7,0.5,1c0.2,0.3,0.5,0.5,0.9,0.6S-19.8,436.6-19.4,436.6z"/>
	<path id="XMLID_51_" class="st3" d="M-4.3,425.3c1,0,1.8,0.1,2.5,0.3c0.7,0.2,1.3,0.5,1.7,1c0.5,0.4,0.8,0.9,1,1.4
		c0.2,0.6,0.3,1.1,0.3,1.8c0,0.7-0.1,1.3-0.3,1.9c-0.2,0.6-0.6,1.1-1,1.5c-0.4,0.4-1,0.7-1.7,1c-0.7,0.2-1.5,0.3-2.5,0.3H-6v4.6
		h-3.2v-13.8H-4.3z M-4.3,432.1c0.8,0,1.4-0.2,1.8-0.6c0.4-0.4,0.6-1,0.6-1.7c0-0.3,0-0.6-0.1-0.9s-0.2-0.5-0.4-0.7
		c-0.2-0.2-0.4-0.3-0.7-0.4c-0.3-0.1-0.6-0.2-1-0.2H-6v4.4L-4.3,432.1L-4.3,432.1z"/>
</g>
<g id="XMLID_13_">
	<polygon id="XMLID_20_" class="st2" points="-171.1,412.1 -154.6,412.1 -154.3,411.2 -144.6,386.7 -144.6,388.3 -133.1,361.1 
		-149.2,361.1 -163.2,391.7 -177.6,361.1 -192.7,361.1 	"/>
	<polygon id="XMLID_19_" class="st2" points="-202.7,374.2 -202.7,412.1 -186.7,412.1 	"/>
	<polygon id="XMLID_18_" class="st2" points="-139.1,412.1 -124.2,412.1 -124.2,376.8 	"/>
</g>
</svg>
