<?xml version="1.0" encoding="utf-8"?>
<!-- Generator: Adobe Illustrator 23.0.0, SVG Export Plug-In . SVG Version: 6.00 Build 0)  -->
<svg version="1.1" id="Layer_1" xmlns="http://www.w3.org/2000/svg" xmlns:xlink="http://www.w3.org/1999/xlink" x="0px" y="0px"
	 viewBox="0 0 107 107" style="enable-background:new 0 0 107 107;" xml:space="preserve">
<style type="text/css">
	.st0{fill:#FFFFFF;}
</style>
<path class="st0" d="M1.3,104.3c-0.7,0-1.3,0.6-1.3,1.3c0,0.7,0.6,1.3,1.3,1.3h104.3c0.7,0,1.3-0.6,1.3-1.3c0-0.7-0.6-1.3-1.3-1.3
	h-9.4v-4.6h9.4c0.5,0,0.9-0.2,1.1-0.6c0.2-0.4,0.3-0.9,0.1-1.3l-4-8.8h0.7c0.5,0,0.9-0.2,1.1-0.6c0.2-0.4,0.3-0.9,0.1-1.3l-3.5-7.6
	h0.1c0.5,0,0.9-0.3,1.2-0.7s0.2-0.9,0-1.3l-6.5-11.7c-0.5-0.9-1.9-0.9-2.3,0l-6.5,11.7c-0.2,0.4-0.2,0.9,0,1.3
	c0.2,0.4,0.7,0.7,1.2,0.7h0.1L85,87.1c-0.2,0.4-0.2,0.9,0.1,1.3c0.2,0.4,0.7,0.6,1.1,0.6h0.7l-4,8.8c-0.2,0.4-0.2,0.9,0.1,1.3
	c0.2,0.4,0.7,0.6,1.1,0.6h9.4v4.6H80.8v-5.6c0-0.7-0.6-1.3-1.3-1.3h-0.6V23h0c0.7,0,1.3-0.6,1.3-1.3V14c0-0.7-0.6-1.3-1.3-1.3h-0.2
	l-1.8-8.9c-0.1-0.6-0.7-1.1-1.3-1.1h-4.9V1.3c0-0.7-0.6-1.3-1.3-1.3h-7.6c-0.7,0-1.3,0.6-1.3,1.3v1.3h-29c-0.6,0-1.2,0.5-1.3,1.1
	l-1.8,8.9h-0.2c-0.7,0-1.3,0.6-1.3,1.3v7.7c0,0.7,0.6,1.3,1.3,1.3h0v74.3h-0.6c-0.7,0-1.3,0.6-1.3,1.3v5.6H13.4v-4.6h9.4
	c0.5,0,0.9-0.2,1.1-0.6c0.2-0.4,0.3-0.9,0.1-1.3l-4-8.8h0.7c0.5,0,0.9-0.2,1.1-0.6c0.2-0.4,0.3-0.9,0.1-1.3l-3.5-7.6h0.1
	c0.5,0,0.9-0.3,1.2-0.7c0.2-0.4,0.2-0.9,0-1.3l-6.5-11.7c-0.2-0.4-0.7-0.7-1.2-0.7c-0.5,0-0.9,0.3-1.2,0.7L4.4,77.5
	c-0.2,0.4-0.2,0.9,0,1.3s0.7,0.7,1.2,0.7h0.1l-3.5,7.6C2,87.5,2,88,2.3,88.3C2.5,88.7,3,89,3.4,89h0.7l-4,8.8
	c-0.2,0.4-0.2,0.9,0.1,1.3c0.2,0.4,0.7,0.6,1.1,0.6h9.4v4.6H1.3z M94.9,69.2l4.2,7.6h-8.4L94.9,69.2z M91.5,79.5h6.8l3.2,6.8H88.3
	L91.5,79.5z M89.9,89H100l3.6,8H86.2L89.9,89z M12.1,69.2l4.2,7.6H7.9L12.1,69.2z M8.7,79.5h6.8l3.2,6.8H5.5L8.7,79.5z M7,89h10.1
	l3.6,8H3.4L7,89z M29.4,20.3v-5h48.1v5H29.4z M74.5,5.3l1.4,7.4h-5.3V5.3H74.5z M68,2.7v10h-5v-10H68z M32.5,5.3h27.9v7.4H31
	L32.5,5.3z M30.8,23h45.4v74.3H64.9V77.4c0-6.3-5.1-11.4-11.4-11.4s-11.4,5.1-11.4,11.4v19.9H30.8V23z M62.2,97.3H44.8V77.4
	c0-4.8,3.9-8.7,8.7-8.7s8.7,3.9,8.7,8.7V97.3z M28.9,100h49.2v4.3H28.9V100z"/>
</svg>
