<?xml version="1.0" encoding="utf-8"?>
<!-- Generator: Adobe Illustrator 23.0.0, SVG Export Plug-In . SVG Version: 6.00 Build 0)  -->
<svg version="1.1" id="Layer_1" xmlns="http://www.w3.org/2000/svg" xmlns:xlink="http://www.w3.org/1999/xlink" x="0px" y="0px"
	 viewBox="0 0 107 107" style="enable-background:new 0 0 107 107;" xml:space="preserve">
<style type="text/css">
	.st0{fill:#FFFFFF;}
</style>
<g>
	<g>
		<g>
			<path class="st0" d="M87.5,27.9L58.7,0.5l0,0C58.5,0.2,58.1,0,57.6,0H2C1,0,0.4,0.6,0.4,1.6V105c0,1,0.6,1.6,1.6,1.6h84.3
				c1,0,1.6-0.6,1.6-1.6v-6.6V29.2C87.9,28.7,87.8,28.3,87.5,27.9z M59.2,5.3l23.1,22.1H59.2V5.3z M84.7,103.4H3.6V3.2H56v26
				c0,1,0.6,1.6,1.6,1.6h27.1v67.5V103.4z"/>
		</g>
	</g>
	<g>
		<g>
			<path class="st0" d="M107,46.8c0-3.7-2.9-6.6-6.6-6.6H96c-3.7,0-6.6,2.9-6.6,6.6v39.2c0,0,0.2,0.5,0.2,0.6l7.1,18.9
				c0.2,0.6,0.8,1,1.5,1c0.6,0,1.3-0.5,1.5-1l7.1-18.9c0,0,0.2-0.5,0.2-0.6V46.8H107z M92.6,46.8c0-1.9,1.5-3.4,3.4-3.4h4.4
				c1.9,0,3.4,1.5,3.4,3.4v37.6H92.6V46.8z M98.3,100.5l-4.8-12.8h9.7L98.3,100.5z"/>
		</g>
	</g>
	<g>
		<g>
			<path class="st0" d="M16.1,40.2h27.6c1,0,1.6-0.6,1.6-1.6v-4c0-5.8-4.5-10.5-10.2-10.8c2.4-1.6,3.9-4.4,3.9-7.4
				c0-5-4-9.2-9.2-9.2c-5,0-9.2,4-9.2,9.2c0,3.1,1.6,5.8,3.9,7.4c-5.8,0.3-10.3,5-10.3,10.8v4C14.5,39.4,15.3,40.2,16.1,40.2z
				 M30,10.3c3.2,0,6,2.6,6,6s-2.6,6-6,6c-3.2,0-6-2.6-6-6S26.7,10.3,30,10.3z M17.7,34.6c0-4.2,3.4-7.8,7.8-7.8h9
				c4.2,0,7.8,3.4,7.8,7.8V37H17.7V34.6z"/>
		</g>
	</g>
	<g>
		<g>
			<path class="st0" d="M49.2,54.9c1,0,1.6-0.6,1.6-1.6c0-1-0.6-1.6-1.6-1.6H12.7c-1,0-1.6,0.6-1.6,1.6c0,1,0.6,1.6,1.6,1.6H49.2z"
				/>
		</g>
	</g>
	<g>
		<g>
			<path class="st0" d="M74.7,64.1H13.6c-1,0-1.6,0.6-1.6,1.6c0,1,0.6,1.6,1.6,1.6h61.1c1,0,1.6-0.6,1.6-1.6
				C76.3,64.9,75.7,64.1,74.7,64.1z"/>
		</g>
	</g>
	<g>
		<g>
			<path class="st0" d="M74.7,76.6H13.6c-1,0-1.6,0.6-1.6,1.6c0,1,0.6,1.6,1.6,1.6h61.1c1,0,1.6-0.6,1.6-1.6
				C76.3,77.4,75.7,76.6,74.7,76.6z"/>
		</g>
	</g>
	<g>
		<g>
			<path class="st0" d="M74.7,89.2H13.6c-1,0-1.6,0.6-1.6,1.6c0,1,0.6,1.6,1.6,1.6h61.1c1,0,1.6-0.6,1.6-1.6S75.7,89.2,74.7,89.2z"
				/>
		</g>
	</g>
</g>
</svg>
