<?xml version="1.0" encoding="utf-8"?>
<!-- Generator: Adobe Illustrator 23.0.0, SVG Export Plug-In . SVG Version: 6.00 Build 0)  -->
<svg version="1.1" id="Layer_1" xmlns="http://www.w3.org/2000/svg" xmlns:xlink="http://www.w3.org/1999/xlink" x="0px" y="0px"
	 viewBox="0 0 107 107" style="enable-background:new 0 0 107 107;" xml:space="preserve">
<style type="text/css">
	.st0{fill:#FFFFFF;}
</style>
<g>
	<g>
		<g>
			<path class="st0" d="M101,44.6c-2.9,0-5.3,2.4-5.3,5.3v16.2l-2.3,2.6c-0.3-1-1-1.8-1.6-2.4c-2.3-2.1-5.8-1.8-7.8,0.5l-9.2,11.6
				c-0.8,1.1-1.1,2.4-1.1,3.7v10.2H72c-1,0-1.9,0.8-1.9,1.9v10.8c0,1,0.8,1.9,1.9,1.9h24.6c1,0,1.9-0.8,1.9-1.9V94.2
				c0-1-0.8-1.9-1.9-1.9h-2.3v-2.6c0-0.8,0.2-1.6,0.6-2.3l10.5-14.4c0.5-0.6,0.6-1.6,0.6-2.4V49.9C106.3,47,103.9,44.6,101,44.6z
				 M95.3,103.6H73.5v-8.1h21.8V103.6z M103.1,70.6c0,0.2,0,0.5-0.2,0.6L92.4,85.7c-0.8,1.3-1.1,2.6-1.1,4v2.6H77.1v-10
				c0-0.6,0.2-1.3,0.5-1.8L86.6,69c0.6-1,2.1-1,2.9-0.2c1.3,1.3,1.3,2.9,0.3,4l-1.6,1.9c-0.6,0.6-0.5,1.6,0.2,2.3
				c0.6,0.6,1.6,0.5,2.3-0.2l7.6-8.7c0.3-0.3,0.5-0.8,0.5-1.1V49.9c0-1.1,1-2.1,2.1-2.1c1.1,0,2.1,1,2.1,2.1v20.7H103.1z"/>
		</g>
	</g>
	<g>
		<g>
			<path class="st0" d="M33.7,92.3h-1.6v-10c0-1.3-0.5-2.6-1.3-3.9l-9.1-11.5C20,64.7,16.4,64,14,66.4c-0.6,0.6-1.1,1.5-1.5,2.3
				l-2.1-2.4V50.1c0-2.9-2.4-5.3-5.3-5.3s-5.3,2.4-5.3,5.3v20.5c0,0.8,0.3,1.6,0.8,2.4l10.3,14.2c0.5,0.6,0.6,1.5,0.6,2.4v2.6H9.2
				c-1,0-1.9,0.8-1.9,1.9v10.8c0,1,0.8,1.9,1.9,1.9h24.6c1,0,1.9-0.8,1.9-1.9V94.2C35.7,93.1,34.9,92.3,33.7,92.3z M13.4,85.5
				L3,71.3c-0.2-0.2-0.2-0.3-0.2-0.6V50.1C2.9,49,3.8,48,5,48s2.1,1,2.1,2.1v16.6c0,0.3,0.2,1,0.5,1.1l7.6,8.7
				c0.6,0.6,1.6,0.8,2.3,0.2c0.6-0.6,0.8-1.6,0.2-2.3L16,72.6c-1-1.1-0.8-2.9,0.2-3.9c1.1-1,2.4-0.8,3.1,0.2l9.1,11.5
				c0.3,0.5,0.6,1.3,0.6,1.9v10H14.7v-2.6C14.7,88.3,14.2,86.8,13.4,85.5z M32.4,103.6H10.6v-8.1h21.8V103.6z"/>
		</g>
	</g>
	<g>
		<g>
			<path class="st0" d="M22.3,64c23.6,0,38,0,61.4,0c1,0,1.6-0.6,1.6-1.6c0-19.2,0-14.4,0-33.3c0-1-0.6-1.6-1.6-1.6
				c-13.7,0-47.5,0-61.4,0c-1,0-1.6,0.6-1.6,1.6v33.3C20.6,63.2,21.3,64,22.3,64z M32.8,30.5H73c0.6,4.7,4.4,8.4,9.1,9.1v12
				c-4.7,0.6-8.2,4.4-9.1,9.2H32.8c-0.6-4.7-4.4-8.4-9.1-9.1v-12C28.4,39,32.1,35.2,32.8,30.5z M23.9,55c2.9,0.6,5,2.9,5.7,5.8h-5.7
				V55z M76.4,60.8c0.6-2.9,2.9-5.2,5.7-5.8v5.8H76.4z M82.1,36.4c-2.9-0.6-5-2.9-5.7-5.8h5.7V36.4z M29.5,30.5
				c-0.6,2.9-2.9,5.2-5.7,5.8v-5.8H29.5z"/>
		</g>
	</g>
	<g>
		<g>
			<path class="st0" d="M53,59.5c7.6,0,13.7-6.3,13.7-13.9S60.6,31.7,53,31.7S39.2,38,39.2,45.6S45.4,59.5,53,59.5z M53,35.1
				c5.8,0,10.5,4.8,10.5,10.7S58.8,56.4,53,56.4s-10.5-4.8-10.5-10.7S47.2,35.1,53,35.1z"/>
		</g>
	</g>
	<g>
		<g>
			<path class="st0" d="M49.1,48.5l-1.5,1.8c1.5,1.3,3.1,1.9,4.8,2.1v1.5h1.3v-1.5c1.3,0,2.4-0.5,3.2-1.1c0.8-0.8,1.3-1.6,1.3-2.9
				c0-1.1-0.3-2.1-1.1-2.6c-0.6-0.6-1.8-1.1-3.4-1.5l0,0v-3.7c1,0.2,1.9,0.5,2.7,1.1l1.3-1.8c-1.3-0.8-2.6-1.5-4-1.5v-1.1h-1.3v1
				c-1.3,0-2.3,0.5-3.1,1.1c-0.8,0.8-1.1,1.6-1.1,2.7c0,1.1,0.3,1.9,1,2.6c0.6,0.6,1.8,1.1,3.2,1.5v4C51.4,50.1,50.2,49.5,49.1,48.5
				z M53.8,46.7c0.8,0.2,1.3,0.5,1.6,0.8s0.5,0.6,0.5,1.1s-0.2,0.8-0.5,1.1c-0.3,0.3-0.8,0.5-1.5,0.5v-3.6H53.8z M51,43.2
				c-0.3-0.3-0.3-0.6-0.3-1.1c0-0.5,0.2-0.8,0.5-1.1c0.3-0.3,0.8-0.5,1.5-0.5v3.4C51.8,43.8,51.4,43.5,51,43.2z"/>
		</g>
	</g>
	<g>
		<g>
			<path class="st0" d="M50.2,25.9c1,0,1.9-0.2,2.7-0.3c0.8,0.2,1.8,0.3,2.7,0.3c7.1,0,12.9-5.8,12.9-12.9S62.8,0,55.7,0
				c-1,0-1.8,0.2-2.7,0.3c-0.8,0-1.8-0.2-2.7-0.2c-7.1,0-12.9,5.8-12.9,12.9S43.1,25.9,50.2,25.9z M65.4,13.1c0,3.9-2.3,7.3-5.7,8.7
				c2.1-2.3,3.6-5.3,3.6-8.7S62,6.6,59.8,4.4C63,5.8,65.4,9.2,65.4,13.1z M50.2,3.4c5.3,0,9.7,4.4,9.7,9.7s-4.4,9.7-9.7,9.7
				s-9.7-4.4-9.7-9.7S44.9,3.4,50.2,3.4z"/>
		</g>
	</g>
	<g>
		<g>
			<path class="st0" d="M46.7,15.7l-1.3,1.6c1.3,1.1,2.9,1.8,4.5,1.9v1.3H51v-1.3c1.3,0,2.3-0.5,3.1-1.1c0.8-0.6,1.1-1.6,1.1-2.6
				c0-1.1-0.3-1.9-1-2.4c-0.6-0.5-1.6-1-3.1-1.3l0,0V8.4c1,0.2,1.8,0.5,2.6,1.1l1.1-1.6c-1.1-0.8-2.4-1.3-3.9-1.5V5.3h-1.1v1
				c-1.1,0-2.1,0.5-2.9,1.1c-0.8,0.6-1.1,1.6-1.1,2.6c0,1.1,0.3,1.9,1,2.4c0.6,0.5,1.6,1,3.1,1.3v3.6C48.8,17.1,47.6,16.6,46.7,15.7
				z M51,14.1c0.8,0.2,1.3,0.5,1.5,0.6c0.3,0.3,0.5,0.6,0.5,1c0,0.5-0.2,0.8-0.5,1.1c-0.3,0.3-0.8,0.5-1.5,0.5V14.1z M48.4,10.8
				c-0.2-0.3-0.3-0.6-0.3-1c0-0.5,0.2-0.8,0.5-1c0.3-0.3,0.8-0.5,1.3-0.5v3.2C49.3,11.3,48.8,11,48.4,10.8z"/>
		</g>
	</g>
</g>
</svg>
