<?xml version="1.0" encoding="utf-8"?>
<!-- Generator: Adobe Illustrator 23.0.0, SVG Export Plug-In . SVG Version: 6.00 Build 0)  -->
<svg version="1.1" id="Layer_1" xmlns="http://www.w3.org/2000/svg" xmlns:xlink="http://www.w3.org/1999/xlink" x="0px" y="0px"
	 viewBox="0 0 107 107" style="enable-background:new 0 0 107 107;" xml:space="preserve">
<style type="text/css">
	.st0{fill:#FFFFFF;}
</style>
<g>
	<g>
		<g>
			<path class="st0" d="M28.8,76.2L28.8,76.2c0.6,0,1.3-0.5,1.6-1.1c1.8-5,4.7-9,8.7-11.9c0.2,1.6,1.4,2.9,3.1,2.9l0,0H45v6.3
				c0,2.1,1.6,3.7,3.7,3.7l0,0h9c2.1,0,3.7-1.8,3.7-3.7v-6.3h3.1c1.6,0,2.9-1.3,3.1-2.7c3.4,2.6,6.1,6.3,8.5,11.7
				c0.3,0.6,0.8,1,1.4,1c0,0,0,0,0.2,0c0.6,0,1.3-0.5,1.4-1.1c0.6-2.2,1-4.5,1-6.7c0-9-4.7-17-12.5-21.4
				c-1.1-24.4-10.4-42.4-13-45.1c-0.2-0.2-0.6-0.6-1.3-0.6c-0.8-0.2-1.3,0.3-1.8,0.6c-2.7,2.9-11.9,20.6-13,45.3
				c-7.7,4.7-12.4,12.5-12.4,21.5c0,2.2,0.3,4.5,1,6.7C27.5,75.7,28.2,76.2,28.8,76.2z M58.2,72.2c0,0.3-0.3,0.5-0.5,0.5h-9l0,0
				c-0.3,0-0.5-0.3-0.5-0.5v-6.3h10.1L58.2,72.2z M64.6,62.7l-22.5,0.2C41.4,47,42,33,47.6,17c3.9,2.4,7.5,2.4,11.1,0
				C66.2,37.8,64.3,53.6,64.6,62.7z M77,67.9c0,0.5,0,0.8,0,1.3c-2.1-3.5-5-7.4-9.2-10c0-0.2,0-0.2,0-0.3c0-5.3,0.2-4.7,0.2-8.7
				C73.6,54.4,77,60.8,77,67.9z M53.2,4.9c1,1.6,2.6,4.7,4.3,9c-2.9,2.2-5.6,2.4-8.8,0.2C50.5,9.6,52.3,6.4,53.2,4.9z M38.6,50.5
				c0,3.2,0,4.2,0.2,8.8c-3.9,2.4-7.1,5.6-9.3,9.6c0-0.3,0-0.5,0-0.8C29.5,61.1,32.8,54.7,38.6,50.5z"/>
		</g>
	</g>
	<g>
		<g>
			<path class="st0" d="M53.2,76.7c-4.2,0-7.5,3.5-7.5,7.7c0,5.1,5.6,14.9,6.3,15.9c0.3,0.5,0.8,0.8,1.4,0.8l0,0
				c0.6,0,1.1-0.3,1.4-0.8c0.6-1.1,6.3-11.6,6.3-16.1c0-2.1-0.8-3.9-2.2-5.3C57.2,77.3,55.3,76.7,53.2,76.7z M53.2,96
				c-1.9-3.5-4.3-9-4.3-11.7c0-2.4,1.9-4.5,4.5-4.5c1.1,0,2.2,0.5,3.1,1.3c0.8,0.8,1.3,1.9,1.3,3.1C57.6,86.5,55.3,91.8,53.2,96z"/>
		</g>
	</g>
	<g>
		<g>
			<path class="st0" d="M53.2,21.5c-3.1,0-5.6,2.6-5.6,5.6s2.4,5.6,5.6,5.6l0,0c3.1,0,5.6-2.6,5.6-5.6S56.4,21.5,53.2,21.5z
				 M53.2,29.5v1.6V29.5c-1.3,0-2.4-1.1-2.4-2.4c0-1.3,1.1-2.4,2.4-2.4s2.4,1.1,2.4,2.4C55.6,28.4,54.5,29.5,53.2,29.5z"/>
		</g>
	</g>
	<g>
		<g>
			<path class="st0" d="M53.2,35c-3.1,0-5.6,2.6-5.6,5.6s2.4,5.6,5.6,5.6l0,0c3.1,0,5.6-2.6,5.6-5.6C58.9,37.4,56.4,35,53.2,35z
				 M53.2,42.8v1.6V42.8c-1.3,0-2.4-1.1-2.4-2.4S52,38,53.2,38s2.4,1.1,2.4,2.4S54.5,42.8,53.2,42.8z"/>
		</g>
	</g>
	<g>
		<g>
			<path class="st0" d="M53.2,48.3c-3.1,0-5.6,2.6-5.6,5.6c0,3.1,2.4,5.6,5.6,5.6l0,0c3.1,0,5.6-2.6,5.6-5.6
				C58.9,50.8,56.4,48.3,53.2,48.3z M53.2,56.1v1.6V56.1c-1.3,0-2.4-1.1-2.4-2.4s1.1-2.4,2.4-2.4s2.4,1.1,2.4,2.4
				C55.6,55.2,54.5,56.1,53.2,56.1z"/>
		</g>
	</g>
	<g>
		<g>
			<path class="st0" d="M100.9,90.8c0.2-0.8,0.3-1.6,0.3-2.6c0-5.3-4.3-9.8-9.8-9.8c-3.4,0-6.4,1.8-8.2,4.5c-1.6-1-3.4-1.6-5.3-1.6
				c-5.3,0-9.8,4.3-9.8,9.8c0,0.2,0,0.5,0,0.6v0.2c0,1,0.8,1.6,1.8,1.4c1,0,1.6-0.8,1.4-1.8c0-0.2,0-0.2,0-0.3v-0.2
				c0-3.5,2.9-6.6,6.6-6.6c1.8,0,3.4,0.6,4.7,2.1c0.3,0.3,1,0.6,1.4,0.5c0.5-0.2,1-0.5,1.1-1c1-2.6,3.4-4.3,6.1-4.3
				c3.5,0,6.6,2.9,6.6,6.6c0,1-0.2,1.9-0.6,2.9c-0.2,0.5-0.2,1,0,1.4c0.2,0.5,0.6,0.8,1.1,0.8c2.6,0.3,4.3,2.6,4.3,5
				c0,2.7-2.2,5.1-5.1,5.1c-10.9,0-78.8,0-89.4,0c-2.4-0.2-4.7-2.4-4.7-5.3c0-2.6,1.9-4.7,4.3-5c0.5,0,1-0.3,1.1-0.8
				c0.2-0.5,0.3-1,0-1.4c-0.3-1-0.6-1.9-0.6-2.9c0-3.5,2.9-6.6,6.6-6.6c2.7,0,5.1,1.8,6.1,4.3c0.2,0.5,0.6,1,1.1,1
				c0.5,0.2,1.1,0,1.4-0.5c1.3-1.3,2.9-2.1,4.7-2.1c3.5,0,6.6,2.9,6.6,6.6v0.2c0,0.2,0,0.2,0,0.3c0,1,0.6,1.6,1.4,1.6
				s1.6-0.6,1.8-1.6c0-0.2,0-0.5,0-0.6c0-5.3-4.3-9.8-9.8-9.8c-1.9,0-3.7,0.5-5.3,1.6c-1.8-2.7-4.8-4.5-8.2-4.5
				c-5.3,0-9.8,4.3-9.8,9.8c0,0.8,0.2,1.6,0.3,2.6c-2.9,1.4-5,4.5-5,7.9c0,4.7,3.7,8.3,8.3,8.3c8.7,0,78.5,0,89.4,0
				c4.5,0,8.3-3.7,8.3-8.3C106.2,95,104.1,91.9,100.9,90.8z"/>
		</g>
	</g>
</g>
</svg>
