<?xml version="1.0" encoding="utf-8"?>
<!-- Generator: Adobe Illustrator 23.0.0, SVG Export Plug-In . SVG Version: 6.00 Build 0)  -->
<svg version="1.1" id="Layer_1" xmlns="http://www.w3.org/2000/svg" xmlns:xlink="http://www.w3.org/1999/xlink" x="0px" y="0px"
	 viewBox="0 0 107 107" style="enable-background:new 0 0 107 107;" xml:space="preserve">
<style type="text/css">
	.st0{fill:#0E6EB7;}
</style>
<g>
	<g>
		<g>
			<path class="st0" d="M37.2,73h5.3v16.4c0,2.6,2.1,4.7,4.7,4.7h12.5c2.6,0,4.7-2.1,4.7-4.7V73h5.2c1,0,1.6-0.6,1.6-1.6V44.9
				c0-6-4.4-10.9-9.9-10.9H45.5c-5.5,0-9.9,4.9-9.9,10.9v26.4C35.6,72.3,36.2,73,37.2,73z M38.8,44.9c0-4.2,2.9-7.6,6.6-7.6h15.9
				c3.7,0,6.6,3.4,6.6,7.6v24.8h-3.7V56.6c0-1-0.6-1.6-1.6-1.6S61,55.6,61,56.6v32.7c0,0.8-0.6,1.5-1.5,1.5H55V72.1
				c0-1-0.6-1.6-1.6-1.6s-1.6,0.6-1.6,1.6v18.6h-4.5c-0.8,0-1.5-0.6-1.5-1.5V56.6c0-1-0.6-1.6-1.6-1.6s-1.6,0.6-1.6,1.6v13.1h-3.7
				V44.9z"/>
		</g>
	</g>
	<g>
		<g>
			<path class="st0" d="M53.4,33.1c6,0,11-4.9,11-10.7c0-6-4.9-10.7-11-10.7s-11,4.9-11,10.7S47.4,33.1,53.4,33.1z M53.4,14.8
				c4.2,0,7.8,3.4,7.8,7.5s-3.4,7.5-7.8,7.5s-7.8-3.4-7.8-7.5S49.2,14.8,53.4,14.8z"/>
		</g>
	</g>
	<g>
		<g>
			<path class="st0" d="M90.7,20.3c5.5,0,10.1-4.5,10.1-10.2C100.8,4.5,96.2,0,90.7,0S80.6,4.5,80.6,10.2
				C80.6,15.7,85.2,20.3,90.7,20.3z M90.7,3.2c3.7,0,6.8,3.1,6.8,7s-3.1,7-6.8,7c-3.7,0-6.8-3.1-6.8-7S87,3.2,90.7,3.2z"/>
		</g>
	</g>
	<g>
		<g>
			<path class="st0" d="M16.1,20.3c5.5,0,10.1-4.5,10.1-10.2C26.2,4.5,21.6,0,16.1,0S6.1,4.5,6.1,10.2C6.1,15.7,10.6,20.3,16.1,20.3
				z M16.1,3.2c3.7,0,6.8,3.1,6.8,7s-3.1,7-6.8,7s-6.8-3.2-6.8-7S12.4,3.2,16.1,3.2z"/>
		</g>
	</g>
	<g>
		<g>
			<path class="st0" d="M100.8,67.6v-9.9h4.5c1,0,1.6-0.6,1.6-1.6V31.3c0-5.7-4.1-10.4-9.1-10.4H83.6c-5,0-9.1,4.7-9.1,10.4v24.8
				c0,1,0.6,1.6,1.6,1.6h4.5V73c0,2.4,1.9,4.5,4.4,4.5h11.2c2.4,0,4.4-1.9,4.4-4.5v-0.6c1.9,2.6,2.9,5.2,2.9,7.8
				c0,13-22.5,23.5-50.3,23.5C25.7,103.8,3.2,93.2,3.2,80.3c0-2.8,1-5.3,2.9-7.8V73c0,2.4,1.9,4.5,4.4,4.5h11.2
				c2.4,0,4.4-1.9,4.4-4.5V57.7h4.7c1,0,1.6-0.6,1.6-1.6V31.3c0-5.7-4.1-10.4-9.1-10.4H9c-5,0.2-9.1,4.7-9.1,10.4v24.8
				c0,1,0.6,1.6,1.6,1.6h4.5v9.9C2,71.3-0.1,75.7-0.1,80.3c0,14.9,23.5,26.8,53.5,26.8s53.5-11.8,53.5-26.8
				C106.9,75.7,104.8,71.3,100.8,67.6z M96.2,74.3h-3.9V56.9c0-1-0.6-1.6-1.6-1.6s-1.6,0.6-1.6,1.6v17.3H85c-0.6,0-1.1-0.5-1.1-1.3
				V42.3c0-1-0.6-1.6-1.6-1.6s-1.6,0.6-1.6,1.6v12.2h-2.9V31.3c0-3.9,2.6-7.1,5.8-7.1h14.3c3.2,0,5.8,3.2,5.8,7.1v23.2h-2.9V42.3
				c0-1-0.6-1.6-1.6-1.6s-1.6,0.6-1.6,1.6v25.9l0,0V73C97.5,73.6,96.9,74.3,96.2,74.3z M3.2,54.5V31.3c0-3.9,2.6-7,5.8-7h14.3
				c3.2,0,5.8,3.2,5.8,7.1v23.2h-2.9V42.5c0-1-0.6-1.6-1.6-1.6c-1,0-1.6,0.6-1.6,1.6V73c0,0.6-0.5,1.3-1.1,1.3h-4.1V56.9
				c0-1-0.6-1.6-1.6-1.6c-1,0-1.6,0.6-1.6,1.6v17.3h-3.9c-0.6,0-1.1-0.5-1.1-1.3V42.3c0-1-0.6-1.6-1.6-1.6s-1.6,0.6-1.6,1.6v12.2
				H3.2z"/>
		</g>
	</g>
	<g>
		<g>
			<path class="st0" d="M44,96.1c-1,0-1.6,0.6-1.6,1.6s0.6,1.6,1.6,1.6h18.6c1,0,1.6-0.6,1.6-1.6s-0.6-1.6-1.6-1.6H44z"/>
		</g>
	</g>
	<g>
		<g>
			<path class="st0" d="M24.6,80.7H7.7c-1,0-1.6,0.6-1.6,1.6S6.7,84,7.7,84h16.9c1,0,1.6-0.6,1.6-1.6S25.5,80.7,24.6,80.7z"/>
		</g>
	</g>
	<g>
		<g>
			<path class="st0" d="M99.1,84c1,0,1.6-0.6,1.6-1.6s-0.6-1.6-1.6-1.6H82.3c-1,0-1.6,0.6-1.6,1.6s0.6,1.6,1.6,1.6H99.1z"/>
		</g>
	</g>
</g>
</svg>
