<?xml version="1.0" encoding="utf-8"?>
<!-- Generator: Adobe Illustrator 23.0.0, SVG Export Plug-In . SVG Version: 6.00 Build 0)  -->
<svg version="1.1" id="Layer_1" xmlns="http://www.w3.org/2000/svg" xmlns:xlink="http://www.w3.org/1999/xlink" x="0px" y="0px"
	 viewBox="0 0 107 107" style="enable-background:new 0 0 107 107;" xml:space="preserve">
<style type="text/css">
	.st0{fill:#0E6EB7;}
</style>
<g>
	<g>
		<path class="st0" d="M106.7,65L95.1,45.6c1.3-0.3,2.4-1.1,3.2-2.1c2.6-3.2,1.5-8.1,1.3-8.8C92.9,9.6,78.2-0.2,56.3,0
			c-5.8,0-23.7,0-35.7,23.3c-4.7,9.1-4.2,21.2,1.3,36.2c0.3,0.8,1.3,1.3,2.1,1s1.3-1.3,1-2.1c-5.2-14.1-5.7-25.3-1.5-33.6
			C34.6,3.2,51,3.2,56.3,3.2c19.9-0.2,33.7,7.6,40,32.4c0.3,1,0.6,4.2-0.6,5.8c-0.6,0.8-1.8,1.3-3.4,1.1c-0.6,0-1.1,0.3-1.5,0.8
			c-0.3,0.5-0.3,1.1,0,1.6l11.5,19.1l-9.2,0.2c-0.5,0-0.8,0.2-1.1,0.5c-0.3,0.3-0.5,0.8-0.5,1.3L93.1,85c0.2,2.3-1.6,4.4-4.2,5.2
			c-4.1,1.3-8.6-0.8-11.8-5.8c-0.3-0.6-1.1-0.8-1.8-0.6s-1.1,0.8-1.1,1.6v18.5H38.5V85c0-0.3-0.2-0.6-0.3-1c0,0-0.3-0.6-1.1-1.6
			c-0.5-0.8-1.5-1-2.3-0.5c-0.8,0.5-1,1.5-0.5,2.3c0.3,0.5,0.6,1,0.8,1.3v19.9c0,1,0.6,1.6,1.6,1.6h38.9c1,0,1.6-0.6,1.6-1.6V89.7
			c4.4,4.2,9.1,4.7,12.6,3.6c4.1-1.3,6.6-4.7,6.5-8.6l-1.5-17l10.4-0.2c0.6,0,1.1-0.3,1.5-0.8C106.9,66.1,106.9,65.5,106.7,65z"/>
	</g>
	<g>
		<path class="st0" d="M35.1,75.1l-2.6-2.4l6.2-6.8c13.3,9.1,31,6.6,41.3-4.9c11.8-13.1,10.9-33.4-2.3-45.2
			c-13.1-12-33.2-10.9-44.9,2.1c-10.7,11.8-10.9,29.8-1,41.8l-6.2,7l-2.6-2.4c-0.3-0.3-0.8-0.5-1.1-0.5c-0.5,0-0.8,0.2-1.1,0.5
			L2.5,84.3c-3.6,4.1-3.2,10.2,0.6,13.8c4.1,3.7,10.2,3.2,13.8-0.6l18.3-20.3C35.7,76.7,35.7,75.5,35.1,75.1z M35.1,19.8
			C45.6,8.1,63.6,7.1,75.4,18c11.7,10.7,12.6,29,1.9,40.7C67,70.2,48.8,71.3,37.2,60.5C25.3,49.8,24.5,31.5,35.1,19.8z M33.9,61.9
			c1.5,1.5,0.3,0.5,1.9,1.8l-6,6.6l-1.9-1.8L33.9,61.9z M14.5,95.3C12,97.9,8,98.2,5.2,95.8c-2.6-2.4-2.8-6.6-0.5-9.4l17.2-19
			c0.5,0.3,9.6,8.8,9.7,8.9L14.5,95.3z"/>
	</g>
	<g>
		<path class="st0" d="M37.3,54.6l3.6,3.6c0.6,0.6,1.5,0.6,2.1,0.2l3.4-2.6c1.6,1,3.2,1.6,5,2.1l0.6,4.4c0.2,0.8,0.8,1.5,1.6,1.5
			h5.2c0.8,0,1.5-0.6,1.6-1.5l0.6-4.4c1.8-0.5,3.4-1.1,5-2.1l3.4,2.6c0.3,0.2,0.6,0.3,1,0.3c0.5,0,1-0.2,1.3-0.5l3.6-3.6
			c0.6-0.6,0.6-1.5,0.2-2.1l-2.8-3.4c1-1.6,1.6-3.2,2.1-5l4.4-0.6c0.8-0.2,1.5-0.8,1.5-1.6v-5.2c0-0.8-0.6-1.5-1.5-1.6L75,34.4
			c-0.5-1.8-1.1-3.6-2.1-5l2.6-3.4c0.5-0.6,0.5-1.6-0.2-2.3l-3.4-3.4c-0.3-0.3-0.8-0.5-1.3-0.5c-0.3,0-0.8,0.2-1.1,0.3l-3.2,2.6
			c-1.6-1-3.2-1.6-5-2.1l-0.6-4.4c-0.2-0.8-0.8-1.5-1.6-1.5h-5.2c-0.8,0-1.5,0.6-1.6,1.5l-0.6,4.4c-1.8,0.5-3.4,1.1-5,2.1L43,20.1
			c-0.6-0.5-1.6-0.5-2.1,0.2l-3.6,3.6c-0.6,0.5-0.6,1.5-0.2,2.1l2.6,3.4c-1,1.6-1.6,3.2-2.1,5L33.3,35c-0.8,0.2-1.5,0.8-1.5,1.6v5.2
			c0,0.8,0.6,1.5,1.5,1.6l4.4,0.6c0.5,1.8,1.1,3.6,2.1,5l-2.6,3.4C36.7,53.2,36.7,54.1,37.3,54.6z M39.3,40.9l-4.1-0.5v-2.3l4.1-0.5
			c0.6-0.2,1.3-0.6,1.3-1.3c0.5-2.1,1.3-4.2,2.4-6c0.3-0.6,0.3-1.3,0-1.9l-2.4-3.2l1.6-1.6l3.2,2.4c0.5,0.5,1.5,0.5,1.9,0
			c1.8-1.3,3.7-2.1,6-2.4c0.6-0.2,1.1-0.6,1.3-1.5l0.5-4.1h2.3l0.5,4.1c0.2,0.6,0.6,1.3,1.3,1.5c2.1,0.5,4.2,1.3,6,2.4
			c0.6,0.3,1.3,0.3,1.9,0l3.2-2.4l1.6,1.6l-2.4,3.2c-0.5,0.5-0.5,1.3,0,1.9c1.3,1.8,2.1,3.9,2.4,6c0.2,0.6,0.6,1.1,1.3,1.3l4.1,0.5
			v2.3l-4.1,0.5C72.7,41,72,41.5,72,42.2c-0.5,2.1-1.3,4.2-2.4,6c-0.3,0.6-0.3,1.3,0,1.9l2.4,3.2L70.4,55l-3.2-2.4
			c-0.5-0.5-1.3-0.5-1.9,0c-1.8,1.3-3.9,2.1-6,2.4c-0.6,0.2-1.1,0.6-1.3,1.5l-0.5,4.1h-2.3l-0.5-4.1c-0.2-0.6-0.6-1.3-1.3-1.5
			c-2.1-0.5-4.2-1.3-6-2.4c-0.6-0.3-1.3-0.3-1.9,0L42.2,55l-1.6-1.6l2.4-3.2c0.5-0.5,0.5-1.5,0-1.9c-1.1-1.8-2.1-3.7-2.4-6
			C40.6,41.5,39.9,41,39.3,40.9z"/>
	</g>
	<g>
		<path class="st0" d="M56.3,50.4c6.2,0,11.2-5,11.2-11.2S62.5,28,56.3,28s-11.2,5-11.2,11.2S50.1,50.4,56.3,50.4z M56.3,31.3
			c4.4,0,7.9,3.6,7.9,7.9s-3.6,7.9-7.9,7.9s-7.9-3.6-7.9-7.9S51.9,31.3,56.3,31.3z"/>
	</g>
</g>
</svg>
