<?xml version="1.0" encoding="utf-8"?>
<!-- Generator: Adobe Illustrator 23.0.0, SVG Export Plug-In . SVG Version: 6.00 Build 0)  -->
<svg version="1.1" id="Layer_1" xmlns="http://www.w3.org/2000/svg" xmlns:xlink="http://www.w3.org/1999/xlink" x="0px" y="0px"
	 viewBox="0 0 107 107" style="enable-background:new 0 0 107 107;" xml:space="preserve">
<style type="text/css">
	.st0{fill:#0A6DB7;}
</style>
<g>
	<path class="st0" d="M49.9,74.9c0,13.8,11.2,25,25,25s25-11.2,25-25s-11.2-25-25-25S49.9,61.1,49.9,74.9z M73.1,96.3
		c-4.4-0.4-8.6-2.1-12-5l12-12.1V96.3z M76.6,79.2l12,12c-3.4,2.9-7.6,4.6-12,5V79.2z M76.6,53.7c4.4,0.4,8.6,2.1,12,5l-12,11.9
		V53.7z M73.1,70.7l-12-12c3.4-2.9,7.6-4.7,12-5.1V70.7z M58.6,61.2l12,11.9h-17C53.9,68.7,55.7,64.4,58.6,61.2L58.6,61.2z
		 M53.6,76.6h17l-12,12C55.7,85.3,53.9,81.1,53.6,76.6z M91.2,88.7l-12-12h17.1C95.9,81.1,94.1,85.3,91.2,88.7z M96.3,73.1H79.2
		l12-12C94.1,64.4,95.9,68.6,96.3,73.1z"/>
	<path class="st0" d="M101.6,10.7c3,0,5.3-2.4,5.3-5.3S104.6,0,101.6,0h-16v3.6h-3.9c-2.8,0-5.1,2.1-5.3,4.9l-1.9,21.4
		c-1.7-1.9-4.1-3.1-6.7-3.1H33.9c-4.9,0-8.9,4-8.9,8.9v23.2h-2.5c-2.5,0-4.6,1.7-5.2,4.2l-4.4,19H0v3.6h12.8c1.7,0,3.2-1.1,3.6-2.8
		l1.4-6.1H25v9.1c-0.6-0.1-1.2-0.2-1.8-0.2c-5.9,0-10.7,4.8-10.7,10.7c0,5.9,4.8,10.7,10.7,10.7c5.9,0,10.7-4.8,10.7-10.7
		c0-3.8-2-7.4-5.3-9.3v-3.2h4.9c0.7,0,1.3,0.4,1.6,1l3.4,6.8c0.9,1.8,2.8,3,4.8,3h6.3c10.8,14,30.9,16.7,45,5.9
		c14-10.8,16.7-30.9,5.9-45C94.7,48,86.1,43.4,76.8,42.9l3.1-34.1c0.1-0.9,0.9-1.6,1.8-1.6h3.9v3.6H101.6z M30.3,96.3
		c0,3.9-3.2,7.1-7.1,7.1s-7.1-3.2-7.1-7.1s3.2-7.1,7.1-7.1c0.6,0,1.2,0.1,1.8,0.2V92l-3,3c-0.7,0.7-0.7,1.8,0,2.5c0,0,0,0,0,0
		c0.7,0.7,1.8,0.7,2.5,0c0,0,0,0,0,0l3-3c0.7-0.7,1-1.6,1.1-2.5v-0.4C29.7,92.9,30.3,94.5,30.3,96.3z M52.7,51.7H28.5V41h44.6v1.8
		c0,0,0,0,0,0.1C65.5,43.3,58.2,46.4,52.7,51.7z M33.9,30.3h33.9c3,0,5.3,2.4,5.3,5.3v1.8H28.5v-1.8C28.5,32.7,30.9,30.3,33.9,30.3z
		 M28.5,55.3h21c-0.9,1.1-1.7,2.3-2.4,3.6H28.5V55.3z M18.6,73.1l2.2-9.3c0.2-0.8,0.9-1.4,1.8-1.4H25v10.7H18.6z M43.2,90.9
		c-0.7,0-1.3-0.4-1.6-1l-3.4-6.8c-0.9-1.8-2.8-3-4.8-3h-4.9V62.4h16.8c-3.9,9.3-3.3,19.8,1.8,28.5H43.2z M103.4,74.9
		c0,15.8-12.8,28.5-28.5,28.5S46.3,90.6,46.3,74.9s12.8-28.5,28.5-28.5S103.4,59.1,103.4,74.9z M89.1,3.6h12.5c1,0,1.8,0.8,1.8,1.8
		s-0.8,1.8-1.8,1.8H89.1V3.6z"/>
</g>
</svg>
