<?xml version="1.0" encoding="utf-8"?>
<!-- Generator: Adobe Illustrator 23.0.0, SVG Export Plug-In . SVG Version: 6.00 Build 0)  -->
<svg version="1.1" id="Layer_1" xmlns="http://www.w3.org/2000/svg" xmlns:xlink="http://www.w3.org/1999/xlink" x="0px" y="0px"
	 viewBox="0 0 107 107" style="enable-background:new 0 0 107 107;" xml:space="preserve">
<style type="text/css">
	.st0{fill:#0A6DB7;}
</style>
<g>
	<g>
		<path class="st0" d="M107,75.3c0-17.1-14.1-31.5-31.7-31.5c-17.5,0-31.7,14.2-31.7,31.5s14.1,31.5,31.7,31.5S107,92.4,107,75.3z
			 M75.3,103.5c-2.3,0-5.2-4.5-7-12.6h13.9C80.6,99,77.7,103.5,75.3,103.5z M67.9,87.7c-0.5-3.4-0.8-7.3-1-11.5h17
			c0,4.4-0.3,8.1-1,11.5H67.9z M47,76.2h16.7c0,3.9,0.3,7.8,1,11.5H50.1C48.3,84.1,47.2,80.3,47,76.2z M50.6,61.4h14.2
			c-0.6,3.7-1,7.6-1.1,11.5H47.2C47.5,68.8,48.6,64.9,50.6,61.4z M75.3,46.8c2.3,0,4.8,4,6.6,11.3H68.7C70.5,51,73.2,46.8,75.3,46.8
			z M82.8,61.4c0.6,3.4,1,7.3,1.1,11.5h-17c0.2-4.4,0.5-8.2,1.1-11.5H82.8z M103.6,73H87.1c-0.2-3.9-0.5-7.9-1.1-11.5h14.2
			C102.2,64.9,103.3,68.8,103.6,73z M87.1,76.2h16.7c-0.2,4.2-1.1,8.1-2.9,11.5H86.3C86.8,84,87.1,80.1,87.1,76.2z M98.1,58.1H85.3
			c-1-4.4-2.4-8.1-4.2-10.7C88.1,48.9,93.9,52.8,98.1,58.1z M69.5,47.4c-1.8,2.6-3.1,6.5-4.2,10.7H52.5
			C56.9,52.8,62.7,48.9,69.5,47.4z M51.9,90.9h13.4c1,4.8,2.4,9.1,4.4,12C62.2,101.4,55.9,96.9,51.9,90.9z M81.3,102.9
			c1.9-2.9,3.4-7.1,4.4-12h13.3C94.9,96.9,88.6,101.4,81.3,102.9z"/>
	</g>
	<g>
		<path class="st0" d="M56.6,30.5l0.8,12.8c0,0.5,0.3,1,0.8,1.3c0.5,0.3,1,0.3,1.5,0.2l5.2-1.9c0.5-0.2,1-0.6,1-1.1l3.4-17.3
			c9.4-5.5,13.1-10.5,11-14.7c-2.1-4.4-8.2-4.7-18.4-1L46.4,0.2c-0.5-0.3-1.1-0.3-1.6,0L39.9,3c-0.5,0.3-0.8,0.6-0.8,1.3
			c0,0.5,0.2,1,0.5,1.3l9.4,8.9c-8.1,4.5-14.5,8.7-18.4,11.6l-8.1-2.3c-0.5-0.2-1.1,0-1.5,0.3l-2.7,2.3c-0.3,0.3-0.6,0.8-0.6,1.3
			s0.3,1,0.8,1.3l5.3,3.4c-1.8,1.9-3.1,3.4-2.4,4.9c0.5,1.1,1.6,1.3,3.2,1.3c0.6,0,1.3,0,1.9,0l-0.8,6.3c0,0.5,0.2,1,0.5,1.5
			c0.3,0.3,0.6,0.5,1.1,0.5c0.2,0,0.2,0,0.3,0l3.6-0.6c0.5-0.2,1-0.5,1.1-1l3.6-7.9C40.6,36.1,48.2,33.7,56.6,30.5z M29.9,42.9h-0.5
			l0.8-6c0.2-1-0.6-1.8-1.6-1.8c-1,0-1.9,0.2-2.9,0.2c0.6-0.6,1.5-1.5,1.9-2.3l0,0c0.6-0.8,0.3-1.9-0.3-2.4l-5-3.2l0.3-0.3l8.1,2.3
			c0.5,0.2,1.1,0,1.5-0.3c4-2.9,11.5-7.9,20.7-12.9c1-0.5,1.1-1.9,0.3-2.6l-9.4-8.9l1.8-1.1l15.2,8.2c0.3,0.2,1,0.3,1.3,0.2
			c8.4-3.2,13.9-3.6,15-1c1.1,2.6-2.6,6.5-10.3,11c-0.3,0.2-0.6,0.6-0.8,1.1l-3.2,17l-2.3,0.8l-0.8-12.9c0-1.1-1.3-1.8-2.3-1.5
			c-9.7,3.9-18.3,6.5-23.1,7.6c-0.3,0.2-1,0.5-1.1,1L29.9,42.9z"/>
	</g>
	<g>
		<path class="st0" d="M21.2,58.3H8.5c-4.5,0-8.2,4-8.2,9.1v21c0,1,0.6,1.6,1.6,1.6h3.9v12.8c0,2.3,1.8,4,4,4h9.9c2.3,0,4-1.8,4-4
			V90h4c1,0,1.6-0.6,1.6-1.6v-21C29.4,62.3,25.7,58.3,21.2,58.3z M26.2,86.7h-2.3v-10c0-1-0.6-1.6-1.6-1.6s-1.6,0.6-1.6,1.6v26
			c0,0.5-0.3,0.8-0.8,0.8h-3.4V89.2c0-1-0.6-1.6-1.6-1.6s-1.6,0.6-1.6,1.6v14.4H9.8c-0.5,0-0.8-0.3-0.8-0.8v-26c0-1-0.6-1.6-1.6-1.6
			s-1.6,0.6-1.6,1.6v10H3.5V67.3c0-3.2,2.3-5.8,5-5.8h12.6c2.7,0,5,2.6,5,5.8V86.7z"/>
	</g>
	<g>
		<path class="st0" d="M14.7,58c4.9,0,8.7-3.9,8.7-8.7c0-4.9-3.9-8.7-8.7-8.7S6,44.4,6,49.2C6,54.1,9.8,58,14.7,58z M14.7,43.7
			c3.1,0,5.5,2.4,5.5,5.5c0,3.1-2.4,5.5-5.5,5.5s-5.5-2.4-5.5-5.5C9.2,46.2,11.6,43.7,14.7,43.7z"/>
	</g>
</g>
</svg>
