<?xml version="1.0" encoding="utf-8"?>
<!-- Generator: Adobe Illustrator 23.0.0, SVG Export Plug-In . SVG Version: 6.00 Build 0)  -->
<svg version="1.1" id="Layer_1" xmlns="http://www.w3.org/2000/svg" xmlns:xlink="http://www.w3.org/1999/xlink" x="0px" y="0px"
	 viewBox="0 0 107 107" style="enable-background:new 0 0 107 107;" xml:space="preserve">
<style type="text/css">
	.st0{fill:#0A6DB7;}
</style>
<g>
	<g>
		<path class="st0" d="M87.8,43L74.6,29.5C74.3,29.2,74,29,73.5,29H33.3c-0.5,0-0.8,0.2-1.1,0.5L19,43C8.3,54,1,74.4,7.3,89.5
			c3.4,7.9,11.8,17.5,33.1,17.5h25.9c21.2,0,29.8-9.6,33.2-17.5C105.8,74.4,98.5,54,87.8,43z M96.5,88.2
			c-4.4,10.2-14.8,15.6-30.2,15.6H40.4c-15.4,0-25.9-5.3-30.2-15.6c-5.8-13.8,1-32.7,11-43l12.6-13h38.9l12.6,13
			C95.4,55.4,102.4,74.4,96.5,88.2z"/>
	</g>
	<g>
		<path class="st0" d="M33.9,18.2c-2.6,0-4.5,2.1-4.5,4.5s2.1,4.5,4.5,4.5h38.9c2.6,0,4.5-2.1,4.5-4.5s-2.1-4.5-4.5-4.5
			C72.8,18.2,33.9,18.2,33.9,18.2z M74.3,22.7c0,0.8-0.6,1.3-1.3,1.3H33.9c-0.8,0-1.3-0.6-1.3-1.3c0-0.8,0.6-1.3,1.3-1.3h38.9
			C73.7,21.4,74.3,22,74.3,22.7z"/>
	</g>
	<g>
		<path class="st0" d="M36,15.7c0.3,0.5,0.8,0.8,1.3,0.8h32.1c0.5,0,1.1-0.3,1.3-0.8l8.6-13.3c0.3-0.5,0.3-1.1,0-1.6S78.5,0,77.9,0
			h-49c-0.6,0-1.1,0.3-1.5,0.8c-0.3,0.5-0.3,1.1,0,1.6L36,15.7z M75,3.2l-6.5,9.9H38.3l-6.5-9.9C31.8,3.2,75,3.2,75,3.2z"/>
	</g>
	<g>
		<path class="st0" d="M55.3,64.8L55.3,64.8l-0.2-8.3c2.3,0.3,4.4,1.1,6.3,2.6l2.9-4.1c-2.9-1.9-6-3.1-9.1-3.2v-2.3h-2.8v2.3
			c-2.9,0.2-5.2,1-7,2.6c-1.8,1.6-2.6,3.7-2.6,6.2c0,2.6,0.8,4.4,2.3,5.7s3.9,2.3,7.3,3.1V78c-2.6-0.5-5.2-1.6-7.6-3.9L41.7,78
			c3.2,2.8,6.8,4.4,10.9,4.9v3.2h2.8V83c2.9-0.2,5.3-1,7.3-2.6c1.8-1.6,2.8-3.7,2.8-6.3c0-2.6-0.8-4.5-2.4-5.8
			C61.2,66.6,58.7,65.7,55.3,64.8z M52.4,64c-1.6-0.5-2.8-1.1-3.4-1.6c-0.6-0.6-0.8-1.3-0.8-2.3c0-1,0.3-1.8,1.1-2.4
			c0.8-0.6,1.8-1,3.1-1.1V64z M58.6,76.8c-0.8,0.6-1.9,1.1-3.4,1.3v-7.9c1.8,0.5,2.9,1.1,3.6,1.6c0.6,0.6,1,1.5,1,2.4
			C59.9,75.4,59.4,76.2,58.6,76.8z"/>
	</g>
	<g>
		<path class="st0" d="M76.1,49c-8.9-0.3-15.6-3.2-21.6-9.4c-0.3-0.3-0.6-0.5-1.1-0.5s-0.8,0.2-1.1,0.5C46.1,45.7,38.8,49,31.3,49
			h-0.5c-0.8,0-1.5,0.5-1.6,1.3c-0.5,2.4-0.6,4.7-0.6,7.1c-0.2,25.3,22.9,40.9,24,41.5c0.3,0.2,0.6,0.3,0.8,0.3c0.3,0,0.6-0.2,1-0.3
			c1-0.6,24-16.5,24-41.5c0-2.3-0.2-4.7-0.6-7.1C77.5,49.4,76.9,49,76.1,49z M53.4,95.5c-4.2-3.1-21.7-17.2-21.7-38.1
			c0-1.6,0.2-3.4,0.5-5.2c7.5-0.3,14.9-3.6,21.2-9.2c6,5.7,12.8,8.8,21.2,9.2c0.3,1.8,0.5,3.6,0.5,5.2
			C75.1,77.8,57.6,92.2,53.4,95.5z"/>
	</g>
</g>
</svg>
