<?xml version="1.0" encoding="utf-8"?>
<!-- Generator: Adobe Illustrator 23.0.0, SVG Export Plug-In . SVG Version: 6.00 Build 0)  -->
<svg version="1.1" id="Layer_1" xmlns="http://www.w3.org/2000/svg" xmlns:xlink="http://www.w3.org/1999/xlink" x="0px" y="0px"
	 viewBox="0 0 107 107" style="enable-background:new 0 0 107 107;" xml:space="preserve">
<style type="text/css">
	.st0{fill:#0A6DB7;}
</style>
<g>
	<g>
		<g>
			<path class="st0" d="M9.5,39.5l-0.5,6.3c0,0.5,0.2,1,0.5,1.3c0.3,0.3,1,0.5,1.5,0.3l3.6-0.8c0.5-0.2,1-0.5,1.1-1l3.1-7.9
				c4.7-1.5,12.1-4,20.6-7.8l1.5,12.9c0,0.5,0.3,1,0.8,1.3c0.5,0.3,1,0.3,1.5,0.2l5-2.3c0.5-0.2,0.8-0.6,1-1.3l2.6-17.5
				c9.1-6,12.6-11.2,10.4-15.4c-2.3-4.2-8.4-4.4-18.6-0.2L27.5,0.2C27-0.1,26.4,0,25.9,0.3l-4.5,2.9c-0.5,0.3-0.6,0.8-0.8,1.3
				c0,0.5,0.2,1,0.5,1.3l9.9,8.4c-7.9,4.9-14.2,9.5-18,12.6l-8.3-1.9c-0.5-0.2-1.1,0-1.5,0.3l-2.6,2.4c-0.5,0.5-0.6,1-0.6,1.5
				c0,0.5,0.3,1,0.8,1.3l5.5,3.1c-1.8,2.1-2.9,3.6-2.1,5c0.5,1,1.5,1.1,2.8,1.1C7.6,39.7,8.6,39.7,9.5,39.5z M4.7,28.3l8.3,1.9h0.2
				h0.2h0.2h0.2c0.2,0,0.2,0,0.3-0.2c0,0,0.2,0,0.2-0.2c0,0,0,0,0.2,0c3.9-3.2,11.2-8.6,20.2-13.9c1-0.6,1-1.9,0.2-2.6l-9.7-8.6
				L27,3.6l15.7,7.6c0.3,0.2,1,0.2,1.3,0C52.3,7.6,57.8,7,59.1,9.6c1.3,2.4-2.3,6.6-9.9,11.5c-0.3,0.3-0.6,0.8-0.8,1.1l-2.6,17.3
				l-2.1,1l-1.5-12.9c-0.2-1.1-1.3-1.8-2.3-1.3c-9.5,4.4-18.1,7.3-23,8.7c-0.3,0.2-1,0.5-1.1,1l-2.9,7.9L12.5,44l0.5-6.2
				c0-1-0.8-1.8-1.8-1.8s-2.1,0.2-3.1,0.3c0.6-0.8,1.3-1.6,1.9-2.3c0.6-0.8,0.3-1.9-0.5-2.4l-5.2-3.1L4.7,28.3z"/>
		</g>
	</g>
	<g>
		<g>
			<path class="st0" d="M96.1,38.5H78.5c-6,0-10.8,5.5-10.8,12.3v30.3c0,1,0.6,1.6,1.6,1.6h6v19.1c0,2.8,2.3,5.2,5,5.2H94
				c2.8,0,5-2.3,5-5.2V82.7h6.2c1,0,1.6-0.6,1.6-1.6V50.8C106.8,44,102,38.5,96.1,38.5z M103.6,79.5h-4.4V64.3c0-1-0.6-1.6-1.6-1.6
				c-1,0-1.6,0.6-1.6,1.6v37.6c0,1-0.8,1.9-1.8,1.9H89V82.1c0-1-0.6-1.6-1.6-1.6c-1,0-1.6,0.6-1.6,1.6v21.5h-5.2
				c-1,0-1.8-0.8-1.8-1.9V64.3c0-1-0.6-1.6-1.6-1.6c-1,0-1.6,0.6-1.6,1.6v15.2h-4.4V50.8c0-5,3.4-9.1,7.6-9.1h17.5
				c4.2,0,7.4,4,7.4,9.1v28.6H103.6z"/>
		</g>
	</g>
	<g>
		<g>
			<path class="st0" d="M87.2,36.9c6.6,0,12-5.3,12-12.1c0-6.6-5.3-12.1-12-12.1c-6.6,0-12,5.3-12,12.1
				C75.4,31.4,80.8,36.9,87.2,36.9z M87.2,15.9c4.9,0,8.7,4,8.7,8.9s-3.9,8.9-8.7,8.9c-4.9,0-8.7-4-8.7-8.9S82.5,15.9,87.2,15.9z"/>
		</g>
	</g>
	<g>
		<g>
			<path class="st0" d="M23.6,63.8h-3.4c3.4-0.8,6-4,6-7.8c0-4.4-3.6-7.9-7.9-7.9s-7.9,3.6-7.9,7.9c0,3.7,2.6,6.8,6,7.8h-3.4
				c-4,0-7.3,3.7-7.3,8.1v18.6c0,1,0.6,1.6,1.6,1.6h3.1v11c0,2.1,1.6,3.7,3.7,3.7h8.4c2.1,0,3.7-1.6,3.7-3.7v-11h2.9
				c1,0,1.6-0.6,1.6-1.6V71.9C30.8,67.5,27.5,63.8,23.6,63.8z M13.6,56c0-2.6,2.1-4.7,4.7-4.7S23,53.4,23,56c0,2.6-2.1,4.9-4.7,4.9
				S13.6,58.8,13.6,56z M27.5,88.9h-1.5v-8.7c0-1-0.6-1.6-1.6-1.6c-1,0-1.6,0.6-1.6,1.6v23c0,0.3-0.2,0.5-0.5,0.5h-2.6V91.1
				c0-1-0.6-1.6-1.6-1.6c-1,0-1.6,0.6-1.6,1.6v12.5h-2.4c-0.3,0-0.5-0.2-0.5-0.5v-23c0-1-0.6-1.6-1.6-1.6s-1.6,0.6-1.6,1.6v8.7H8.9
				v-17c0-2.8,1.8-4.9,4-4.9h10.7c2.3,0,3.9,2.3,3.9,4.9V88.9z"/>
		</g>
	</g>
	<g>
		<g>
			<path class="st0" d="M61,69.6h-3.1v-9.2c0-1-0.6-1.6-1.6-1.6H42.4c-1,0-1.6,0.6-1.6,1.6v9.2h-3.1c-2.1,0-3.9,1.8-3.9,3.9v25.7
				c0,2.1,1.8,3.9,3.9,3.9h1.6v2.1c0,1,0.6,1.6,1.6,1.6s1.6-0.6,1.6-1.6v-2.1h13.6v2.1c0,1,0.6,1.6,1.6,1.6c1,0,1.6-0.6,1.6-1.6
				v-2.1H61c2.1,0,3.9-1.8,3.9-3.9V73.5C64.9,71.4,63.1,69.6,61,69.6z M44,62h10.7v7.6H44C44,69.6,44,62,44,62z M37.7,72.8h4.7l0,0
				l0,0h13.9l0,0l0,0H61c0.3,0,0.6,0.3,0.6,0.6v11.3H37.1V73.5C37.1,73.2,37.4,72.8,37.7,72.8z M61,99.9H37.7
				c-0.3,0-0.6-0.3-0.6-0.6V87.9h24.6v11.3C61.7,99.6,61.3,99.9,61,99.9z"/>
		</g>
	</g>
</g>
</svg>
