<?xml version="1.0" encoding="utf-8"?>
<!-- Generator: Adobe Illustrator 23.0.0, SVG Export Plug-In . SVG Version: 6.00 Build 0)  -->
<svg version="1.1" id="Layer_1" xmlns="http://www.w3.org/2000/svg" xmlns:xlink="http://www.w3.org/1999/xlink" x="0px" y="0px"
	 viewBox="0 0 118 118" style="enable-background:new 0 0 118 118;" xml:space="preserve">
<style type="text/css">
	.st0{fill-rule:evenodd;clip-rule:evenodd;fill:#0A6DB7;}
</style>
<g>
	<path class="st0" d="M31.2,1.3C36-0.8,38,0.1,43,1.2c1.7,0.7,3,1.8,3.3,3.4c1.9,9.6,2.2,18.1,1.7,26.9c-0.2,5.2-7.9,8-11.9,11.3
		C36.9,58,49.4,79.7,62.1,87.8c4.9-1.8,11.1-7,15.7-4.6c7.8,4,15,8.5,22.4,14.9c1.2,1.1,1.5,2.7,1.3,4.6c-1.5,4.9-1.9,6.9-6,10.2
		C56.1,144.3-14.5,21.8,31.2,1.3L31.2,1.3z"/>
</g>
</svg>
