<?xml version="1.0" encoding="utf-8"?>
<!-- Generator: Adobe Illustrator 23.0.0, SVG Export Plug-In . SVG Version: 6.00 Build 0)  -->
<svg version="1.1" id="Layer_1" xmlns="http://www.w3.org/2000/svg" xmlns:xlink="http://www.w3.org/1999/xlink" x="0px" y="0px"
	 viewBox="0 0 107 107" style="enable-background:new 0 0 107 107;" xml:space="preserve">
<style type="text/css">
	.st0{fill:#0E6EB7;}
</style>
<g>
	<g>
		<g>
			<path class="st0" d="M74.3,46c0.6-0.6,0.6-1.5,0.2-2.1L72,40.7c0.8-1.5,1.6-3.1,1.9-4.9l4-0.5c0.8-0.2,1.5-0.8,1.5-1.6v-4.9
				c0-0.8-0.6-1.5-1.5-1.6l-4-0.5c-0.5-1.6-1.1-3.2-1.9-4.9l2.4-3.2c0.5-0.6,0.5-1.6-0.2-2.3l-3.4-3.6c-0.6-0.6-1.5-0.6-2.1-0.2
				l-3.2,2.6c-1.6-1-3.2-1.6-4.9-2.1l-0.5-4c-0.2-0.8-0.8-1.5-1.6-1.5h-4.9c-0.8,0-1.5,0.6-1.6,1.5l-0.5,4c-1.6,0.5-3.2,1.1-4.7,1.9
				l-3.2-2.6c-0.6-0.5-1.6-0.5-2.1,0.2l-3.4,3.6c-0.6,0.6-0.6,1.5-0.2,2.1l2.4,3.2c-0.8,1.5-1.6,3.1-1.9,4.9l-4,0.5
				c-0.8,0.2-1.5,0.8-1.5,1.6v4.9c0,0.8,0.6,1.5,1.5,1.6l4,0.5c0.5,1.6,1.1,3.2,1.9,4.9l-2.6,3.2c-0.5,0.6-0.5,1.6,0.2,2.1l3.4,3.6
				c0.6,0.6,1.5,0.6,2.1,0.2l3.2-2.6c1.5,0.8,3.1,1.6,4.7,1.9l0.5,4c0.2,0.8,0.8,1.5,1.6,1.5h4.9c0.8,0,1.5-0.6,1.6-1.5l0.5-4
				c1.6-0.5,3.2-1.1,4.7-1.9l3.2,2.4c0.3,0.2,0.6,0.3,1,0.3l0,0c0.5,0,1-0.2,1.3-0.5L74.3,46z M69.6,46.2l-3.1-2.3
				c-0.5-0.5-1.3-0.5-1.9,0c-1.8,1.1-3.6,1.9-5.7,2.4c-0.6,0.2-1.1,0.6-1.3,1.5l-0.5,3.9H55l-0.5-3.9c-0.2-0.6-0.6-1.3-1.3-1.5
				c-2.1-0.3-4-1.1-5.7-2.4c-0.6-0.3-1.3-0.3-1.9,0l-3.1,2.3l-1.5-1.5l2.3-3.1c0.5-0.5,0.5-1.5,0-1.9c-1.1-1.8-1.9-3.6-2.3-5.7
				c-0.2-0.6-0.6-1.1-1.5-1.3l-3.7-0.5v-2.1l3.9-0.5c0.6-0.2,1.3-0.6,1.5-1.3c0.3-2.1,1.1-4,2.4-5.7c0.3-0.6,0.3-1.3,0-1.9l-2.6-3.1
				l1.5-1.5l2.9,2.3c0.5,0.5,1.5,0.5,1.9,0c1.8-1.1,3.6-1.9,5.7-2.3c0.6-0.2,1.1-0.6,1.3-1.5l0.5-3.9H57l0.5,3.9
				c0.2,0.6,0.6,1.3,1.3,1.5c2.1,0.3,4,1.1,5.7,2.4c0.6,0.3,1.3,0.3,1.9,0l3.1-2.3l1.5,1.5l-2.3,3.1c-0.5,0.5-0.5,1.3,0,1.9
				c1.1,1.8,1.9,3.7,2.4,5.7c0.2,0.6,0.6,1.1,1.5,1.3l3.9,0.5v1.9l-3.9,0.5c-0.6,0.2-1.3,0.6-1.5,1.3c-0.3,2.1-1.1,4-2.4,5.7
				c-0.3,0.6-0.3,1.3,0,1.9l2.3,3.1L69.6,46.2z"/>
		</g>
	</g>
	<g>
		<g>
			<path class="st0" d="M56.2,20.8c-5.7,0-10.4,4.7-10.4,10.4s4.5,10.4,10.4,10.4c5.7,0,10.4-4.7,10.4-10.4
				C66.4,25.5,61.8,20.8,56.2,20.8z M56.2,38.2c-3.9,0-7.1-3.2-7.1-7.1s3.2-7.1,7.1-7.1s7.1,3.2,7.1,7.1
				C63.1,35.2,60,38.2,56.2,38.2z"/>
		</g>
	</g>
	<g>
		<g>
			<path class="st0" d="M89.5,58.3H75.4c1-1.3,1.9-2.6,3.1-3.7c5.7-6.1,8.9-14.1,8.7-22.5c0-8.9-3.7-17.6-10.2-23.6
				c-6.3-6-14.6-8.9-23.1-8.4C38.4,1,25.7,13.5,24.3,29.3c-0.8,9.4,2.6,18.8,9.1,25.6c1,1.1,1.9,2.3,2.9,3.4h-5.7h-0.2h-0.2L10.5,63
				c-0.8,0.2-1.3,0.8-1.3,1.6c0,0.8,0.5,1.5,1.3,1.6l19.6,4.7c0.2,0,0.3,0,0.3,0l0,0h11.3c0.3,1.1,0.5,2.4,0.5,3.7h-3.7
				c-0.6,0-1.3,0.3-1.8,0.8c-0.5,0.5-0.8,1.1-0.8,1.8V90c0,1.5,1.1,2.6,2.6,2.6l0,0h8.3v0.2v4.7h-3.9c-1,0-1.6,0.8-1.6,1.6
				c0,1,0.6,1.6,1.6,1.6l0,0h4c0.5,3.6,3.2,6.3,6.8,6.3l0,0h4.2c3.6,0,6.5-2.8,6.8-6.3h4c1,0,1.6-0.8,1.6-1.6c0-1-0.8-1.6-1.6-1.6
				l0,0h-3.9v-4.7v-0.2h8.4c0.6,0,1.3-0.3,1.8-0.8s0.8-1.1,0.8-1.8V77.2c0-1.5-1.1-2.6-2.6-2.6h-3.7c0.2-1.1,0.3-2.4,0.5-3.6h19.4
				c3.4,0,6.3-2.8,6.3-6.3C95.8,61,93,58.3,89.5,58.3z M58.3,103.4h-4.2c-2.1,0-3.7-1.8-3.7-3.9v-7.1c0-0.2,0-0.2,0.2-0.2h11.2
				l0.2,0.2v7.1C61.8,101.7,60.2,103.4,58.3,103.4z M35.6,52.6c-5.8-6.1-8.9-14.6-8.1-23.1C28.8,15.3,40.1,3.9,54.1,3.1
				c7.8-0.5,15,2.3,20.9,7.6c5.8,5.5,9.2,13.3,9.2,21.4c0,7.6-2.8,14.9-7.9,20.2c-1.8,1.8-3.2,3.9-4.5,6H40.1
				C38.8,56.4,37.4,54.4,35.6,52.6z M29,62v5.2l-11-2.6L29,62z M32.2,61.5h47.9v6H32.2V61.5z M72.7,88.9L39.3,89V77.7
				c11.5,0,26-0.2,33.3-0.2V88.9z M66.4,74.3c-2.4,0-16,0.2-20.7,0.2c-0.2-1.3-0.3-2.4-0.5-3.7h21.7C66.7,72.1,66.5,73.2,66.4,74.3z
				 M89.5,67.5h-6.1v-6h6.3c1.6,0,3.1,1.3,3.1,3.1C92.6,66.2,91.3,67.5,89.5,67.5z"/>
		</g>
	</g>
</g>
</svg>
