<?xml version="1.0" encoding="utf-8"?>
<!-- Generator: Adobe Illustrator 23.0.0, SVG Export Plug-In . SVG Version: 6.00 Build 0)  -->
<svg version="1.1" id="Layer_1" xmlns="http://www.w3.org/2000/svg" xmlns:xlink="http://www.w3.org/1999/xlink" x="0px" y="0px"
	 viewBox="0 0 118 118" style="enable-background:new 0 0 118 118;" xml:space="preserve">
<style type="text/css">
	.st0{fill:#0A6DB7;}
</style>
<path class="st0" d="M73.1,0.7C70.6-0.3,67.9,1,67,3.4c-0.2,0.5-0.3,1.1-0.3,1.7v30.3H51.7L51.3,4.7c0-2.6-2.2-4.7-4.8-4.7
	c-0.5,0-1,0.1-1.5,0.2c-17,5.9-28.3,21.9-28,39.9C17,55.6,25.4,69.9,39,77.2v36c0,2.6,2.1,4.7,4.7,4.7h30.5c2.6,0,4.7-2.1,4.7-4.7
	c0,0,0,0,0,0V77.6c13.6-7.4,22-21.6,22-37.1C100.9,22.7,89.7,6.8,73.1,0.7z"/>
</svg>
