<?xml version="1.0" encoding="utf-8"?>
<!-- Generator: Adobe Illustrator 23.0.0, SVG Export Plug-In . SVG Version: 6.00 Build 0)  -->
<svg version="1.1" id="Layer_1" xmlns="http://www.w3.org/2000/svg" xmlns:xlink="http://www.w3.org/1999/xlink" x="0px" y="0px"
	 viewBox="0 0 107 107" style="enable-background:new 0 0 107 107;" xml:space="preserve">
<style type="text/css">
	.st0{fill:#0E6EB7;}
</style>
<g>
	<g>
		<g>
			<path class="st0" d="M95.8,81.8v-9.1c0-1-0.6-1.6-1.6-1.6H55.1v-7.8C77,62.3,94.1,44,94.9,43.2c0.6-0.6,0.6-1.6,0-2.3
				c-0.8-0.8-18.8-20.1-41.5-20.1S12.6,40.1,12,40.9c-0.6,0.6-0.6,1.6,0,2.3c0.6,0.8,18,19.1,39.9,19.9v7.8H12.8
				c-1,0-1.6,0.6-1.6,1.6v9.1C4.9,82.6,0,87.9,0,94.4c0,7,5.7,12.6,12.6,12.6s12.6-5.7,12.6-12.6c0-6.5-4.9-11.7-11-12.6v-7.5h37.6
				v7.5c-6.2,0.8-11,6.2-11,12.6c0,7,5.7,12.6,12.6,12.6s12.6-5.7,12.6-12.6c0-6.5-4.9-11.8-11-12.6v-7.5h37.5v7.5
				c-6.2,0.8-11,6.2-11,12.6c0,7,5.7,12.6,12.6,12.6s12.6-5.7,12.6-12.6C107,87.9,102.2,82.6,95.8,81.8z M53.4,24
				c9.9,0,18,8.1,18,18s-8.1,18-18,18s-18-8.1-18-18S43.5,24,53.4,24z M68.3,57.1c3.9-3.9,6.3-9.1,6.3-15.1c0-5.8-2.4-11.2-6.3-15.1
				c11.4,4.4,20.1,12.2,23,15.1C88.4,44.9,79.6,52.7,68.3,57.1z M38.4,26.9c-3.9,3.9-6.3,9.1-6.3,15.1c0,5.8,2.4,11.2,6.3,15.1
				c-11.4-4.4-20.1-12.2-23-15.1C18.3,39.1,27.1,31.3,38.4,26.9z M22.2,94.4c0,5.2-4.2,9.4-9.4,9.4c-5.4,0-9.6-4.2-9.6-9.4
				S7.5,85,12.6,85l0,0l0,0l0,0C18,85,22.2,89.2,22.2,94.4z M62.9,94.4c0,5.2-4.2,9.4-9.4,9.4s-9.4-4.2-9.4-9.4s4.2-9.4,9.4-9.4l0,0
				l0,0C58.7,85,62.9,89.2,62.9,94.4z M94.4,103.8c-5.2,0-9.4-4.2-9.4-9.4s4.2-9.4,9.4-9.4l0,0l0,0l0,0c5.2,0,9.4,4.2,9.4,9.4
				S99.6,103.8,94.4,103.8z"/>
		</g>
	</g>
	<g>
		<g>
			<path class="st0" d="M53.4,13c1,0,1.6-0.6,1.6-1.6V1.6c0-1-0.6-1.6-1.6-1.6s-1.6,0.6-1.6,1.6v9.7C51.7,12.2,52.5,13,53.4,13z"/>
		</g>
	</g>
	<g>
		<g>
			<path class="st0" d="M84,22.1l8.9-6.8c0.6-0.5,0.8-1.6,0.3-2.3c-0.5-0.6-1.6-0.8-2.3-0.3l-8.9,6.8c-0.6,0.5-0.8,1.6-0.3,2.3
				C82.4,22.6,83.4,22.7,84,22.1z"/>
		</g>
	</g>
	<g>
		<g>
			<path class="st0" d="M22.7,22.1c0.6,0.5,1.8,0.5,2.3-0.3c0.5-0.6,0.5-1.8-0.3-2.3l-8.9-6.8c-0.6-0.5-1.6-0.3-2.3,0.3
				c-0.5,0.6-0.3,1.8,0.3,2.3L22.7,22.1z"/>
		</g>
	</g>
	<g>
		<g>
			<path class="st0" d="M68.9,15.4c0.8,0.5,1.8,0.2,2.3-0.6l4.9-8.9c0.5-0.8,0.2-1.8-0.6-2.3c-0.8-0.5-1.8-0.2-2.3,0.6l-4.9,8.9
				C68,14,68.1,14.9,68.9,15.4z"/>
		</g>
	</g>
	<g>
		<g>
			<path class="st0" d="M1,26.6l11.2,4.9c0.8,0.3,1.8,0,2.1-0.8c0.3-0.8,0-1.8-0.8-2.1L2.3,23.7c-0.8-0.3-1.8,0-2.1,0.8
				C-0.2,25.3,0.2,26.1,1,26.6z"/>
		</g>
	</g>
	<g>
		<g>
			<path class="st0" d="M92.8,31.2c0.3,0.8,1.3,1.1,2.1,0.8l11.2-5c0.8-0.3,1.1-1.3,0.8-2.1c-0.3-0.8-1.3-1.1-2.1-0.8l-11.2,5
				C92.8,29.4,92.4,30.3,92.8,31.2z"/>
		</g>
	</g>
	<g>
		<g>
			<path class="st0" d="M36.2,14.5c0.5,0.8,1.5,1.1,2.3,0.6s1.1-1.5,0.6-2.3l-4.7-9.1c-0.5-0.8-1.5-1.1-2.3-0.6
				c-0.8,0.5-1.1,1.5-0.6,2.3L36.2,14.5z"/>
		</g>
	</g>
	<g>
		<g>
			<path class="st0" d="M53.4,54c6.6,0,12.2-5.4,12.2-12s-5.4-12-12.2-12c-6.6,0-12.2,5.4-12.2,12C41.4,48.7,46.7,54,53.4,54z
				 M53.4,33.1c4.9,0,8.9,3.9,8.9,8.8s-3.9,8.8-8.9,8.8c-4.9,0-8.9-3.9-8.9-8.8C44.6,37.2,48.5,33.1,53.4,33.1z"/>
		</g>
	</g>
</g>
</svg>
