<?xml version="1.0" encoding="utf-8"?>
<!-- Generator: Adobe Illustrator 19.0.0, SVG Export Plug-In . SVG Version: 6.00 Build 0)  -->
<svg version="1.1" id="Layer_1" xmlns="http://www.w3.org/2000/svg" xmlns:xlink="http://www.w3.org/1999/xlink" x="0px" y="0px"
	 viewBox="0 0 205 88.6" style="enable-background:new 0 0 205 88.6;" xml:space="preserve">
<style type="text/css">
	.st0{display:none;}
	.st1{display:inline;}
	.st2{fill:#5761AC;}
	.st3{opacity:0.51;}
</style>
<g id="XMLID_10_" class="st0">
	
		<text id="XMLID_9_" transform="matrix(1 0 0 1 87.826 250.1841)" class="st1" style="font-family:'Poppins-Black'; font-size:72px;">avi</text>
	
		<text id="XMLID_8_" transform="matrix(1 0 0 1 0.7377 277.2078)" style="display:inline;opacity:0.51; font-family:'Lato-Black'; font-size:19px; letter-spacing:1;">Insurance Group</text>
	<g id="XMLID_14_" class="st1">
		<polygon id="XMLID_15_" class="st2" points="34,250.2 50.4,250.2 50.8,249.3 60.5,224.8 60.5,226.3 72,199.2 55.9,199.2 
			41.9,229.8 27.5,199.2 12.4,199.2 		"/>
		<polygon id="XMLID_16_" class="st2" points="2.4,212.3 2.4,250.2 18.4,250.2 		"/>
		<polygon id="XMLID_17_" class="st2" points="66,250.2 80.9,250.2 80.9,214.9 		"/>
	</g>
</g>
<g id="group" class="st0">
	<g id="XMLID_2_" class="st1">
		<polygon id="XMLID_7_" class="st2" points="47.8,491 64.2,491 64.6,490 74.3,465.5 74.3,467.1 85.8,440 69.7,440 55.7,470.6 
			41.3,440 26.2,440 		"/>
		<polygon id="XMLID_6_" class="st2" points="16.1,453 16.1,491 32.2,491 		"/>
		<polygon id="XMLID_5_" class="st2" points="79.8,491 94.7,491 94.7,455.7 		"/>
	</g>
	
		<text id="XMLID_4_" transform="matrix(1 0 0 1 100.4642 490.7005)" class="st1" style="font-family:'Poppins-Black'; font-size:72px;">avi</text>
	
		<text id="XMLID_3_" transform="matrix(1 0 0 1 10.3759 517.7242)" style="display:inline;opacity:0.51; font-family:'Poppins-Black'; font-size:24px;">Insurance Group</text>
</g>
<g id="XMLID_54_">
	<path id="XMLID_55_" d="M104,18.6c5.4,0,9.3,2.4,11.2,6v-5.5h15.9v40.6h-15.9v-5.5c-1.9,3.7-5.8,6-11.2,6
		c-9.4,0-16.8-7.7-16.8-20.8C87.2,26.3,94.6,18.6,104,18.6z M109.3,32.5c-3.3,0-5.9,2.4-5.9,6.8s2.6,6.8,5.9,6.8s5.9-2.4,5.9-6.8
		S112.6,32.5,109.3,32.5z"/>
	<path id="XMLID_58_" d="M152.3,19.1l6.6,25.4l6.5-25.4h17l-13.5,40.6h-19.9l-13.5-40.6H152.3z"/>
	<path id="XMLID_60_" d="M185.5,8c0-4.5,3.5-8,9.2-8c5.6,0,9.1,3.5,9.1,8c0,4.4-3.5,7.8-9.1,7.8C189,15.8,185.5,12.4,185.5,8z
		 M186.6,19.1h16v40.6h-16V19.1z"/>
</g>
<g id="XMLID_1_" class="st3">
	<path id="XMLID_11_" d="M3.2,86.7H0V72.9h3.2V86.7z"/>
	<path id="XMLID_23_" d="M19.7,72.9v13.8H18c-0.2,0-0.5,0-0.6-0.1s-0.3-0.2-0.5-0.4l-6.5-8.3c0,0.2,0,0.5,0.1,0.7c0,0.2,0,0.4,0,0.7
		v7.4H7.6V72.9h1.7c0.1,0,0.3,0,0.4,0s0.2,0,0.3,0.1c0.1,0,0.1,0.1,0.2,0.1c0.1,0.1,0.1,0.1,0.2,0.3l6.6,8.3c0-0.3-0.1-0.5-0.1-0.8
		c0-0.3,0-0.5,0-0.7v-7.3H19.7z"/>
	<path id="XMLID_25_" d="M31.8,75.7c-0.1,0.2-0.2,0.3-0.3,0.3s-0.2,0.1-0.4,0.1c-0.1,0-0.3,0-0.5-0.1c-0.2-0.1-0.4-0.2-0.6-0.3
		c-0.2-0.1-0.5-0.2-0.7-0.3s-0.6-0.1-0.9-0.1c-0.6,0-1,0.1-1.3,0.4c-0.3,0.3-0.4,0.6-0.4,1c0,0.3,0.1,0.5,0.3,0.7
		c0.2,0.2,0.4,0.3,0.7,0.5c0.3,0.1,0.6,0.3,1,0.4c0.4,0.1,0.7,0.2,1.1,0.4c0.4,0.1,0.8,0.3,1.1,0.5c0.4,0.2,0.7,0.4,1,0.7
		c0.3,0.3,0.5,0.6,0.7,1c0.2,0.4,0.3,0.9,0.3,1.5c0,0.6-0.1,1.2-0.3,1.8c-0.2,0.6-0.5,1-1,1.5c-0.4,0.4-0.9,0.7-1.6,1
		c-0.6,0.2-1.3,0.4-2.1,0.4c-0.4,0-0.9,0-1.3-0.1c-0.4-0.1-0.9-0.2-1.3-0.4c-0.4-0.2-0.8-0.4-1.2-0.6s-0.7-0.5-1-0.7l1-1.5
		c0.1-0.1,0.2-0.2,0.3-0.3c0.1-0.1,0.3-0.1,0.4-0.1c0.2,0,0.4,0.1,0.6,0.2c0.2,0.1,0.4,0.3,0.7,0.4c0.2,0.1,0.5,0.3,0.8,0.4
		c0.3,0.1,0.7,0.2,1.1,0.2c0.6,0,1-0.1,1.4-0.4s0.5-0.7,0.5-1.2c0-0.3-0.1-0.6-0.3-0.8c-0.2-0.2-0.4-0.4-0.7-0.5
		c-0.3-0.1-0.6-0.3-1-0.4c-0.4-0.1-0.7-0.2-1.1-0.3c-0.4-0.1-0.8-0.3-1.1-0.5c-0.4-0.2-0.7-0.4-1-0.7c-0.3-0.3-0.5-0.7-0.7-1.1
		c-0.2-0.4-0.3-1-0.3-1.6c0-0.5,0.1-1,0.3-1.5s0.5-0.9,0.9-1.3c0.4-0.4,0.9-0.7,1.5-0.9c0.6-0.2,1.3-0.3,2-0.3c0.4,0,0.8,0,1.2,0.1
		c0.4,0.1,0.8,0.2,1.1,0.3s0.7,0.3,1,0.5s0.6,0.4,0.8,0.6L31.8,75.7z"/>
	<path id="XMLID_27_" d="M42.2,84.2c0.4,0,0.8-0.1,1.2-0.2c0.3-0.1,0.6-0.3,0.9-0.6c0.2-0.3,0.4-0.6,0.5-1c0.1-0.4,0.2-0.8,0.2-1.3
		v-8.2h3.2v8.2c0,0.8-0.1,1.6-0.4,2.3c-0.3,0.7-0.7,1.3-1.2,1.8c-0.5,0.5-1.1,0.9-1.9,1.2c-0.7,0.3-1.6,0.4-2.5,0.4
		c-0.9,0-1.8-0.1-2.5-0.4c-0.7-0.3-1.4-0.7-1.9-1.2c-0.5-0.5-0.9-1.1-1.2-1.8c-0.3-0.7-0.4-1.5-0.4-2.3v-8.2h3.2v8.2
		c0,0.5,0.1,0.9,0.2,1.3c0.1,0.4,0.3,0.7,0.5,1s0.5,0.5,0.9,0.6C41.3,84.1,41.7,84.2,42.2,84.2z"/>
	<path id="XMLID_29_" d="M63.7,86.7h-2.9c-0.5,0-0.9-0.2-1.2-0.6l-2.3-4c-0.1-0.2-0.2-0.3-0.4-0.4c-0.1-0.1-0.3-0.1-0.6-0.1h-0.8
		v5.1h-3.2V72.9h4.5c1,0,1.9,0.1,2.6,0.3c0.7,0.2,1.3,0.5,1.7,0.9s0.8,0.8,1,1.3c0.2,0.5,0.3,1,0.3,1.6c0,0.4-0.1,0.9-0.2,1.3
		c-0.1,0.4-0.3,0.8-0.5,1.1c-0.2,0.3-0.5,0.6-0.9,0.9c-0.3,0.3-0.7,0.5-1.2,0.7c0.2,0.1,0.4,0.2,0.6,0.4c0.2,0.2,0.3,0.4,0.5,0.6
		L63.7,86.7z M56.8,79.4c0.4,0,0.8-0.1,1.1-0.2c0.3-0.1,0.6-0.3,0.8-0.5s0.3-0.4,0.4-0.7c0.1-0.3,0.1-0.5,0.1-0.9
		c0-0.6-0.2-1.1-0.6-1.4c-0.4-0.3-1-0.5-1.8-0.5h-1.3v4.1H56.8z"/>
	<path id="XMLID_32_" d="M79,86.7h-2.5c-0.3,0-0.5-0.1-0.7-0.2s-0.3-0.3-0.4-0.5l-0.8-2.4h-5.3L68.5,86c-0.1,0.2-0.2,0.3-0.4,0.5
		s-0.4,0.2-0.7,0.2H65l5.4-13.8h3.3L79,86.7z M73.9,81.4l-1.3-3.8c-0.1-0.2-0.2-0.5-0.3-0.9c-0.1-0.3-0.2-0.7-0.3-1.1
		c-0.1,0.4-0.2,0.7-0.3,1.1c-0.1,0.3-0.2,0.6-0.3,0.9l-1.3,3.8H73.9z"/>
	<path id="XMLID_35_" d="M93.9,72.9v13.8h-1.7c-0.2,0-0.5,0-0.6-0.1s-0.3-0.2-0.5-0.4l-6.5-8.3c0,0.2,0,0.5,0.1,0.7
		c0,0.2,0,0.4,0,0.7v7.4h-2.8V72.9h1.7c0.1,0,0.3,0,0.4,0s0.2,0,0.3,0.1c0.1,0,0.1,0.1,0.2,0.1c0.1,0.1,0.1,0.1,0.2,0.3l6.6,8.3
		c0-0.3-0.1-0.5-0.1-0.8c0-0.3,0-0.5,0-0.7v-7.3H93.9z"/>
	<path id="XMLID_37_" d="M107.6,83.1c0.1,0,0.2,0,0.2,0c0.1,0,0.1,0.1,0.2,0.1l1.3,1.3c-0.6,0.7-1.3,1.3-2.1,1.6
		c-0.8,0.4-1.8,0.6-3,0.6c-1.1,0-2-0.2-2.8-0.5c-0.8-0.4-1.5-0.9-2.1-1.5c-0.6-0.6-1-1.4-1.3-2.2c-0.3-0.9-0.5-1.8-0.5-2.8
		c0-1,0.2-2,0.5-2.8c0.3-0.9,0.8-1.6,1.4-2.2c0.6-0.6,1.3-1.1,2.2-1.5c0.8-0.3,1.8-0.5,2.8-0.5c0.5,0,1,0,1.5,0.1
		c0.5,0.1,0.9,0.2,1.3,0.4c0.4,0.2,0.8,0.4,1.1,0.6c0.3,0.2,0.6,0.5,0.9,0.7l-1.1,1.5c-0.1,0.1-0.2,0.2-0.2,0.2s-0.2,0.1-0.4,0.1
		c-0.1,0-0.2,0-0.3-0.1c-0.1-0.1-0.2-0.1-0.3-0.2c-0.1-0.1-0.2-0.2-0.4-0.2c-0.1-0.1-0.3-0.2-0.5-0.2c-0.2-0.1-0.4-0.1-0.7-0.2
		c-0.3-0.1-0.5-0.1-0.9-0.1c-0.5,0-1,0.1-1.5,0.3s-0.8,0.5-1.1,0.9c-0.3,0.4-0.6,0.8-0.7,1.4s-0.3,1.2-0.3,1.9
		c0,0.7,0.1,1.3,0.3,1.9c0.2,0.6,0.5,1,0.8,1.4c0.3,0.4,0.7,0.7,1.2,0.9c0.4,0.2,0.9,0.3,1.4,0.3c0.3,0,0.6,0,0.8,0
		c0.2,0,0.5-0.1,0.7-0.1s0.4-0.2,0.6-0.3c0.2-0.1,0.4-0.3,0.6-0.4c0.1-0.1,0.2-0.1,0.2-0.2C107.4,83.2,107.5,83.1,107.6,83.1z"/>
	<path id="XMLID_39_" d="M115.7,75.3v3.2h4.4V81h-4.4v3.3h5.7v2.5h-8.9V72.9h8.9v2.5H115.7z"/>
	<path id="XMLID_41_" d="M137.9,79.5h4.9v5.8c-0.7,0.5-1.5,0.9-2.3,1.1c-0.8,0.2-1.6,0.4-2.5,0.4c-1.1,0-2.2-0.2-3.1-0.5
		c-0.9-0.4-1.7-0.9-2.4-1.5s-1.2-1.4-1.5-2.2c-0.4-0.9-0.5-1.8-0.5-2.8c0-1,0.2-2,0.5-2.8c0.3-0.9,0.8-1.6,1.5-2.2s1.4-1.1,2.3-1.5
		c0.9-0.3,1.9-0.5,3-0.5c0.6,0,1.1,0,1.6,0.1c0.5,0.1,1,0.2,1.4,0.4c0.4,0.2,0.8,0.4,1.2,0.6s0.7,0.5,1,0.7l-0.9,1.4
		c-0.1,0.2-0.3,0.4-0.6,0.4c-0.2,0.1-0.5,0-0.7-0.2c-0.3-0.2-0.5-0.3-0.7-0.4s-0.5-0.2-0.7-0.3c-0.2-0.1-0.5-0.1-0.7-0.2
		s-0.6,0-0.9,0c-0.6,0-1.1,0.1-1.6,0.3c-0.5,0.2-0.9,0.5-1.2,0.9s-0.6,0.9-0.8,1.4c-0.2,0.5-0.3,1.1-0.3,1.8c0,0.7,0.1,1.4,0.3,2
		c0.2,0.6,0.5,1.1,0.9,1.4s0.8,0.7,1.3,0.9c0.5,0.2,1.1,0.3,1.7,0.3c0.4,0,0.7,0,1-0.1c0.3-0.1,0.6-0.2,0.9-0.3v-2.1h-1.4
		c-0.2,0-0.4-0.1-0.5-0.2c-0.1-0.1-0.2-0.2-0.2-0.4V79.5z"/>
	<path id="XMLID_43_" d="M158,86.7h-2.9c-0.5,0-0.9-0.2-1.2-0.6l-2.3-4c-0.1-0.2-0.2-0.3-0.4-0.4c-0.1-0.1-0.3-0.1-0.6-0.1h-0.8v5.1
		h-3.2V72.9h4.5c1,0,1.9,0.1,2.6,0.3c0.7,0.2,1.3,0.5,1.7,0.9s0.8,0.8,1,1.3c0.2,0.5,0.3,1,0.3,1.6c0,0.4-0.1,0.9-0.2,1.3
		c-0.1,0.4-0.3,0.8-0.5,1.1c-0.2,0.3-0.5,0.6-0.9,0.9c-0.3,0.3-0.7,0.5-1.2,0.7c0.2,0.1,0.4,0.2,0.6,0.4c0.2,0.2,0.3,0.4,0.5,0.6
		L158,86.7z M151.2,79.4c0.4,0,0.8-0.1,1.1-0.2c0.3-0.1,0.6-0.3,0.8-0.5s0.3-0.4,0.4-0.7c0.1-0.3,0.1-0.5,0.1-0.9
		c0-0.6-0.2-1.1-0.6-1.4c-0.4-0.3-1-0.5-1.8-0.5h-1.3v4.1H151.2z"/>
	<path id="XMLID_46_" d="M174.2,79.8c0,1-0.2,1.9-0.5,2.8c-0.3,0.9-0.8,1.6-1.5,2.2s-1.4,1.1-2.3,1.5c-0.9,0.4-1.9,0.5-2.9,0.5
		c-1.1,0-2.1-0.2-2.9-0.5c-0.9-0.4-1.6-0.9-2.3-1.5c-0.6-0.6-1.1-1.4-1.5-2.2c-0.3-0.9-0.5-1.8-0.5-2.8c0-1,0.2-1.9,0.5-2.8
		c0.3-0.9,0.8-1.6,1.5-2.2c0.6-0.6,1.4-1.1,2.3-1.5c0.9-0.4,1.9-0.5,2.9-0.5c1.1,0,2.1,0.2,2.9,0.5s1.6,0.9,2.3,1.5
		c0.6,0.6,1.1,1.4,1.5,2.2C174.1,77.9,174.2,78.8,174.2,79.8z M170.9,79.8c0-0.7-0.1-1.3-0.3-1.8c-0.2-0.5-0.4-1-0.8-1.4
		c-0.3-0.4-0.7-0.7-1.2-0.9s-1-0.3-1.6-0.3c-0.6,0-1.2,0.1-1.7,0.3s-0.9,0.5-1.2,0.9c-0.3,0.4-0.6,0.8-0.8,1.4
		c-0.2,0.5-0.3,1.2-0.3,1.8c0,0.7,0.1,1.3,0.3,1.9c0.2,0.5,0.4,1,0.8,1.4c0.3,0.4,0.7,0.7,1.2,0.9c0.5,0.2,1,0.3,1.7,0.3
		c0.6,0,1.2-0.1,1.6-0.3c0.5-0.2,0.9-0.5,1.2-0.9c0.3-0.4,0.6-0.8,0.8-1.4C170.9,81.1,170.9,80.5,170.9,79.8z"/>
	<path id="XMLID_49_" d="M183.6,84.2c0.4,0,0.8-0.1,1.2-0.2c0.3-0.1,0.6-0.3,0.9-0.6c0.2-0.3,0.4-0.6,0.5-1c0.1-0.4,0.2-0.8,0.2-1.3
		v-8.2h3.2v8.2c0,0.8-0.1,1.6-0.4,2.3c-0.3,0.7-0.7,1.3-1.2,1.8c-0.5,0.5-1.1,0.9-1.9,1.2c-0.7,0.3-1.6,0.4-2.5,0.4
		c-0.9,0-1.8-0.1-2.5-0.4c-0.7-0.3-1.4-0.7-1.9-1.2c-0.5-0.5-0.9-1.1-1.2-1.8c-0.3-0.7-0.4-1.5-0.4-2.3v-8.2h3.2v8.2
		c0,0.5,0.1,0.9,0.2,1.3c0.1,0.4,0.3,0.7,0.5,1s0.5,0.5,0.9,0.6C182.8,84.1,183.2,84.2,183.6,84.2z"/>
	<path id="XMLID_51_" d="M198.7,72.9c1,0,1.8,0.1,2.5,0.3c0.7,0.2,1.3,0.5,1.7,1c0.5,0.4,0.8,0.9,1,1.4c0.2,0.6,0.3,1.1,0.3,1.8
		c0,0.7-0.1,1.3-0.3,1.9s-0.6,1.1-1,1.5s-1,0.7-1.7,1c-0.7,0.2-1.5,0.3-2.5,0.3H197v4.6h-3.2V72.9H198.7z M198.7,79.7
		c0.8,0,1.4-0.2,1.8-0.6s0.6-1,0.6-1.7c0-0.3,0-0.6-0.1-0.9c-0.1-0.3-0.2-0.5-0.4-0.7c-0.2-0.2-0.4-0.3-0.7-0.4
		c-0.3-0.1-0.6-0.2-1-0.2H197v4.4H198.7z"/>
</g>
<g id="XMLID_13_">
	<polygon id="XMLID_20_" class="st2" points="31.9,59.7 48.4,59.7 48.7,58.8 58.4,34.3 58.4,35.9 69.9,8.7 53.8,8.7 39.8,39.3 
		25.4,8.7 10.3,8.7 	"/>
	<polygon id="XMLID_19_" class="st2" points="0.3,21.8 0.3,59.7 16.3,59.7 	"/>
	<polygon id="XMLID_18_" class="st2" points="63.9,59.7 78.8,59.7 78.8,24.4 	"/>
</g>
</svg>
